<?xml version="1.0" encoding="utf-8"?>
<svg version="1.1" id="Layer_1" xmlns="http://www.w3.org/2000/svg" xmlns:xlink="http://www.w3.org/1999/xlink" x="0px" y="0px"
     viewBox="0 0 100 100" style="enable-background:new 0 0 100 100;" xml:space="preserve" fill="#fff">
    <path d="M50,0.9c-27.6,0-50,22.4-50,50C0,73,14.3,91.8,34.2,98.4c2.5,0.5,3.3-1.1,3.3-2.4v-9.3
	c-13.9,3-16.8-5.9-16.8-5.9c-2.3-5.8-5.6-7.3-5.6-7.3c-4.5-3.1,0.3-3,0.3-3c5,0.3,7.7,5.2,7.7,5.2c4.5,7.6,11.7,5.4,14.5,4.2
	c0.4-3.2,1.7-5.4,3.2-6.7c-11.1-1.3-22.8-5.6-22.8-24.7c0-5.5,2-9.9,5.2-13.4c-0.5-1.3-2.2-6.4,0.5-13.2c0,0,4.2-1.3,13.8,5.1
	c4-1.1,8.3-1.7,12.5-1.7c4.2,0,8.5,0.6,12.5,1.7c9.5-6.5,13.7-5.1,13.7-5.1c2.7,6.9,1,12,0.5,13.2c3.2,3.5,5.1,8,5.1,13.4
	c0,19.2-11.7,23.4-22.8,24.7c1.8,1.5,3.4,4.6,3.4,9.3V96c0,1.3,0.8,2.9,3.3,2.4C85.7,91.8,100,73,100,50.9C100,23.3,77.6,0.9,50,0.9
	z"/>
</svg>
