<svg width="24" height="21" viewBox="0 0 24 21" fill="none" xmlns="http://www.w3.org/2000/svg">
<path fill-rule="evenodd" clip-rule="evenodd" d="M1.0255 0.0673482C0.55909 0.230989 0.219434 0.578145 0.0671375 1.0469C-0.000784372 1.25596 -0.00687812 1.96269 0.00465312 8.3331L0.01745 15.3878L0.133512 15.6222C0.281497 15.921 0.562372 16.2019 0.8612 16.3499L1.09557 16.4659L5.04479 16.4787L8.99401 16.4914L8.99354 16.9005C8.99237 17.8616 8.85488 18.836 8.66035 19.2616L8.56088 19.4791L8.26234 19.4982C7.77404 19.5292 7.51745 19.7846 7.51745 20.2394C7.51745 20.5358 7.59423 20.6856 7.84018 20.8693C7.96857 20.9651 8.00255 20.9659 11.994 20.9659C15.9855 20.9659 16.0194 20.9651 16.1478 20.8693C16.3938 20.6856 16.4706 20.5358 16.4706 20.2394C16.4706 19.7846 16.214 19.5292 15.7257 19.4982L15.4271 19.4791L15.3277 19.2616C15.1331 18.836 14.9956 17.8616 14.9945 16.9005L14.994 16.4914L18.9432 16.4787L22.8924 16.4659L23.1268 16.3499C23.4256 16.2019 23.7065 15.921 23.8545 15.6222L23.9706 15.3878V8.23935V1.09091L23.8545 0.856536C23.7065 0.557708 23.4256 0.276833 23.1268 0.128848L22.8924 0.0127856L12.0643 0.00308244C2.30879 -0.00563631 1.21534 0.000738792 1.0255 0.0673482ZM22.494 7.48935V13.4894H11.994H1.49401V7.48935V1.48935H11.994H22.494V7.48935Z" fill="black"/>
</svg>
