<svg width="160" height="46" viewBox="0 0 160 46" fill="none" xmlns="http://www.w3.org/2000/svg">
<path d="M58.1677 22.4285C58.1677 23.5336 57.2233 24.418 56.0571 24.418H53.3347C53.2361 24.4185 53.1385 24.3996 53.0473 24.3623C52.9562 24.3249 52.8734 24.27 52.8037 24.2007C52.734 24.1314 52.6788 24.049 52.6413 23.9583C52.6038 23.8676 52.5848 23.7705 52.5852 23.6724V17.7662C52.5848 17.668 52.6038 17.5708 52.6413 17.48C52.6788 17.3892 52.7339 17.3067 52.8036 17.2372C52.8733 17.1678 52.956 17.1127 53.0472 17.0752C53.1384 17.0377 53.2361 17.0185 53.3347 17.0187H56.0571C57.2233 17.0187 58.1677 17.9085 58.1677 19.0083V22.4285ZM56.0839 13.8138H50.1401C50.0415 13.8133 49.9439 13.8323 49.8527 13.8696C49.7616 13.9069 49.6788 13.9618 49.6091 14.0311C49.5394 14.1005 49.4842 14.1829 49.4467 14.2735C49.4092 14.3642 49.3902 14.4614 49.3906 14.5594V32.7712C49.3902 32.8692 49.4092 32.9664 49.4467 33.0571C49.4842 33.1477 49.5394 33.2301 49.6091 33.2995C49.6788 33.3688 49.7616 33.4237 49.8527 33.461C49.9439 33.4983 50.0415 33.5173 50.1401 33.5168H51.8358C51.9343 33.517 52.0318 33.4979 52.1229 33.4605C52.2139 33.4231 52.2966 33.3682 52.3663 33.2989C52.4359 33.2297 52.4911 33.1474 52.5287 33.0568C52.5662 32.9662 52.5855 32.8692 52.5852 32.7712V28.4042C52.5848 28.3062 52.6038 28.209 52.6413 28.1183C52.6788 28.0276 52.734 27.9452 52.8037 27.8759C52.8734 27.8066 52.9562 27.7517 53.0473 27.7144C53.1385 27.6771 53.2361 27.6581 53.3347 27.6586H56.0571C58.9727 27.6586 61.3623 25.3452 61.3623 22.4641V19.0083C61.3623 16.1361 58.9727 13.8138 56.0571 13.8138H56.0839ZM74.7453 27.5482C74.7453 28.2812 74.4527 28.9841 73.9317 29.5024C73.4108 30.0207 72.7042 30.3119 71.9675 30.3119C71.2308 30.3119 70.5242 30.0207 70.0033 29.5024C69.4823 28.9841 69.1897 28.2812 69.1897 27.5482V19.7824C69.1897 19.0494 69.4823 18.3465 70.0033 17.8282C70.5242 17.3099 71.2308 17.0187 71.9675 17.0187C72.7042 17.0187 73.4108 17.3099 73.9317 17.8282C74.4527 18.3465 74.7453 19.0494 74.7453 19.7824V27.5482ZM71.9675 13.8138C70.3773 13.8166 68.853 14.4464 67.7285 15.5651C66.604 16.6838 65.9711 18.2003 65.9682 19.7824V27.5482C65.9682 29.1312 66.6003 30.6493 67.7254 31.7687C68.8505 32.888 70.3764 33.5168 71.9675 33.5168C73.5586 33.5168 75.0846 32.888 76.2096 31.7687C77.3347 30.6493 77.9668 29.1312 77.9668 27.5482V19.7824C77.9639 18.2003 77.331 16.6838 76.2065 15.5651C75.082 14.4464 73.5577 13.8166 71.9675 13.8138ZM92.5732 33.5168H83.3239C83.2253 33.5173 83.1275 33.4983 83.0363 33.461C82.945 33.4238 82.8621 33.3689 82.7923 33.2996C82.7224 33.2303 82.6671 33.1479 82.6294 33.0572C82.5917 32.9665 82.5724 32.8693 82.5727 32.7712V14.5879C82.5724 14.4898 82.5917 14.3926 82.6294 14.3019C82.6671 14.2112 82.7224 14.1288 82.7923 14.0595C82.8621 13.9902 82.945 13.9353 83.0363 13.898C83.1275 13.8608 83.2253 13.8418 83.3239 13.8423H85.0178C85.1164 13.8418 85.214 13.8608 85.3052 13.8981C85.3963 13.9354 85.4791 13.9903 85.5488 14.0596C85.6185 14.1289 85.6737 14.2113 85.7112 14.302C85.7487 14.3927 85.7677 14.4899 85.7673 14.5879V29.5645C85.7668 29.6627 85.7859 29.7601 85.8235 29.851C85.8611 29.9419 85.9164 30.0245 85.9862 30.094C86.0561 30.1635 86.1391 30.2185 86.2305 30.2559C86.3218 30.2933 86.4197 30.3123 86.5185 30.3119H92.5446C92.6432 30.3114 92.7408 30.3304 92.832 30.3677C92.9231 30.405 93.0059 30.4599 93.0756 30.5292C93.1453 30.5985 93.2005 30.6809 93.238 30.7716C93.2755 30.8623 93.2946 30.9594 93.2941 31.0575V32.7498C93.2946 32.8479 93.2755 32.945 93.238 33.0357C93.2005 33.1264 93.1453 33.2088 93.0756 33.2781C93.0059 33.3474 92.9231 33.4023 92.832 33.4396C92.7408 33.477 92.6432 33.4959 92.5446 33.4954L92.5732 33.5168ZM104.686 14.2284L100.882 21.8804C100.855 21.9307 100.815 21.9728 100.766 22.0021C100.717 22.0314 100.661 22.0469 100.604 22.0469C100.546 22.0469 100.49 22.0314 100.441 22.0021C100.392 21.9728 100.352 21.9307 100.325 21.8804L96.4923 14.2284C96.4286 14.1062 96.333 14.0033 96.2157 13.9303C96.0983 13.8574 95.9634 13.8172 95.8251 13.8138H93.938C93.8102 13.8134 93.6845 13.8457 93.5729 13.9075C93.4613 13.9693 93.3675 14.0586 93.3005 14.1669C93.2335 14.2751 93.1956 14.3987 93.1904 14.5257C93.1852 14.6527 93.2129 14.7789 93.2708 14.8922L98.9088 26.194C98.9625 26.2963 98.9913 26.4096 98.9929 26.525V32.7712C98.9924 32.8692 99.0114 32.9664 99.0489 33.0571C99.0864 33.1477 99.1416 33.2301 99.2113 33.2995C99.281 33.3688 99.3638 33.4237 99.455 33.461C99.5461 33.4983 99.6438 33.5173 99.7423 33.5168H101.442C101.54 33.5173 101.638 33.4983 101.729 33.461C101.82 33.4238 101.903 33.3689 101.973 33.2996C102.043 33.2303 102.098 33.1479 102.136 33.0572C102.174 32.9665 102.193 32.8693 102.193 32.7712V26.6638C102.194 26.548 102.222 26.4341 102.275 26.331L107.942 14.8922C108 14.7789 108.027 14.6527 108.022 14.5257C108.017 14.3987 107.979 14.2751 107.912 14.1669C107.845 14.0586 107.751 13.9693 107.64 13.9075C107.528 13.8457 107.402 13.8134 107.275 13.8138H105.377C105.235 13.8178 105.098 13.8581 104.977 13.9307C104.856 14.0034 104.756 14.1059 104.686 14.2284ZM115.993 32.7712V26.3649C115.999 26.3063 116.018 26.2498 116.048 26.1994L116.631 25.4253C116.666 25.3854 116.71 25.3545 116.759 25.3351C116.808 25.3157 116.861 25.3084 116.914 25.3138C116.967 25.3192 117.017 25.3372 117.061 25.3662C117.106 25.3952 117.142 25.4344 117.168 25.4804L121.584 33.1627C121.649 33.2813 121.745 33.38 121.863 33.4481C121.98 33.5162 122.114 33.551 122.249 33.5488H124.194C124.327 33.5475 124.457 33.5119 124.572 33.4457C124.686 33.3794 124.782 33.2847 124.849 33.1708C124.916 33.0568 124.953 32.9275 124.955 32.7954C124.957 32.6634 124.925 32.533 124.861 32.4171L119.305 22.6901C119.225 22.5587 119.188 22.406 119.197 22.2526C119.207 22.0992 119.264 21.9525 119.361 21.8324L124.695 15.0292C124.782 14.9168 124.835 14.7823 124.849 14.641C124.863 14.4997 124.836 14.3574 124.772 14.2304C124.708 14.1035 124.61 13.997 124.488 13.9233C124.366 13.8497 124.226 13.8117 124.083 13.8138H121.91C121.795 13.8144 121.682 13.8423 121.581 13.8953C121.479 13.9482 121.392 14.0246 121.326 14.1181L116.549 20.197C116.51 20.2477 116.457 20.2847 116.395 20.3027C116.334 20.3208 116.269 20.3188 116.209 20.2971C116.149 20.2754 116.097 20.2351 116.062 20.1822C116.026 20.1293 116.009 20.0665 116.012 20.003V14.5594C116.013 14.4614 115.994 14.3642 115.956 14.2735C115.919 14.1829 115.864 14.1005 115.794 14.0311C115.724 13.9618 115.641 13.9069 115.55 13.8696C115.459 13.8323 115.361 13.8133 115.263 13.8138H113.567C113.469 13.8133 113.371 13.8323 113.28 13.8696C113.189 13.9069 113.106 13.9618 113.036 14.0311C112.966 14.1005 112.911 14.1829 112.874 14.2735C112.836 14.3642 112.817 14.4614 112.818 14.5594V32.7498C112.817 32.8479 112.836 32.945 112.874 33.0357C112.911 33.1264 112.966 33.2088 113.036 33.2781C113.106 33.3474 113.189 33.4023 113.28 33.4396C113.371 33.477 113.469 33.4959 113.567 33.4954H115.263C115.361 33.4959 115.459 33.477 115.55 33.4396C115.641 33.4023 115.724 33.3474 115.794 33.2781C115.864 33.2088 115.919 33.1264 115.956 33.0357C115.994 32.945 116.013 32.8479 116.012 32.7498L115.993 32.7712ZM130.418 33.5168H139.641C139.739 33.5173 139.837 33.4983 139.928 33.461C140.019 33.4237 140.102 33.3688 140.172 33.2995C140.242 33.2301 140.297 33.1477 140.334 33.0571C140.372 32.9664 140.391 32.8692 140.39 32.7712V31.0842C140.391 30.9861 140.372 30.889 140.334 30.7983C140.297 30.7076 140.242 30.6252 140.172 30.5559C140.102 30.4866 140.019 30.4317 139.928 30.3944C139.837 30.357 139.739 30.3381 139.641 30.3386H133.638C133.54 30.3388 133.442 30.3197 133.351 30.2823C133.26 30.2449 133.177 30.19 133.108 30.1207C133.038 30.0514 132.983 29.9691 132.945 29.8785C132.908 29.788 132.888 29.6909 132.889 29.5929V26.0339C132.887 25.9348 132.905 25.8364 132.941 25.7444C132.978 25.6524 133.033 25.5686 133.103 25.498C133.173 25.4274 133.256 25.3714 133.348 25.3332C133.44 25.2951 133.538 25.2755 133.638 25.2758H137.037C137.135 25.2763 137.233 25.2573 137.324 25.22C137.415 25.1827 137.498 25.1278 137.568 25.0584C137.637 24.9891 137.692 24.9067 137.73 24.8161C137.767 24.7254 137.786 24.6282 137.786 24.5302V22.8449C137.786 22.7469 137.767 22.6497 137.73 22.559C137.692 22.4684 137.637 22.386 137.568 22.3167C137.498 22.2473 137.415 22.1924 137.324 22.1551C137.233 22.1178 137.135 22.0988 137.037 22.0993H133.638C133.539 22.0995 133.442 22.0804 133.351 22.0429C133.259 22.0054 133.177 21.9503 133.107 21.8808C133.037 21.8113 132.982 21.7288 132.945 21.6381C132.907 21.5473 132.888 21.45 132.889 21.3519V17.848C132.888 17.75 132.908 17.653 132.945 17.5624C132.983 17.4718 133.038 17.3895 133.108 17.3202C133.177 17.251 133.26 17.1961 133.351 17.1587C133.442 17.1213 133.54 17.1021 133.638 17.1024H139.639C139.738 17.1029 139.835 17.0839 139.926 17.0466C140.018 17.0093 140.1 16.9544 140.17 16.885C140.24 16.8157 140.295 16.7333 140.332 16.6427C140.37 16.552 140.389 16.4548 140.389 16.3568V14.6698C140.389 14.5718 140.37 14.4747 140.332 14.3841C140.294 14.2936 140.239 14.2113 140.17 14.142C140.1 14.0727 140.017 14.0178 139.926 13.9804C139.835 13.943 139.738 13.9239 139.639 13.9241H130.418C130.32 13.9239 130.222 13.943 130.131 13.9804C130.04 14.0178 129.958 14.0727 129.888 14.142C129.818 14.2113 129.763 14.2936 129.726 14.3841C129.688 14.4747 129.669 14.5718 129.669 14.6698V32.8815C129.668 32.9796 129.688 33.0767 129.725 33.1674C129.763 33.2581 129.818 33.3405 129.887 33.4098C129.957 33.4791 130.04 33.534 130.131 33.5713C130.222 33.6086 130.32 33.6276 130.418 33.6271V33.5168ZM156.671 14.2284L152.865 21.8804C152.838 21.9308 152.798 21.9729 152.749 22.0023C152.701 22.0317 152.645 22.0473 152.587 22.0473C152.53 22.0473 152.474 22.0317 152.425 22.0023C152.377 21.9729 152.337 21.9308 152.31 21.8804L148.484 14.2284C148.42 14.1065 148.325 14.0037 148.207 13.9308C148.09 13.8579 147.955 13.8175 147.817 13.8138H145.921C145.793 13.8139 145.668 13.8465 145.557 13.9084C145.445 13.9704 145.352 14.0597 145.285 14.1677C145.218 14.2758 145.18 14.3991 145.175 14.526C145.169 14.6528 145.196 14.7788 145.254 14.8922L150.894 26.194C150.947 26.2964 150.975 26.4098 150.976 26.525V32.7712C150.976 32.8692 150.995 32.9662 151.032 33.0568C151.07 33.1474 151.125 33.2297 151.195 33.2989C151.264 33.3682 151.347 33.4231 151.438 33.4605C151.529 33.4979 151.627 33.517 151.725 33.5168H153.421C153.52 33.5173 153.617 33.4983 153.708 33.461C153.799 33.4237 153.882 33.3688 153.952 33.2995C154.022 33.2301 154.077 33.1477 154.114 33.0571C154.152 32.9664 154.171 32.8692 154.17 32.7712V26.6638C154.172 26.5479 154.201 26.434 154.255 26.331L159.919 14.8922C159.977 14.779 160.005 14.653 160 14.5261C159.995 14.3993 159.957 14.2759 159.89 14.1677C159.823 14.0595 159.73 13.9701 159.618 13.9082C159.507 13.8462 159.382 13.8137 159.254 13.8138H157.365C157.223 13.8167 157.084 13.8564 156.963 13.9292C156.841 14.0019 156.74 14.1051 156.671 14.2284Z" fill="#D1E8E2"/>
<path d="M41.3733 32.8218C41.462 32.452 41.4385 32.0643 41.3057 31.7077C41.1729 31.3512 40.9368 31.0419 40.6273 30.8189C40.3178 30.5959 39.9487 30.4692 39.5668 30.455C39.1849 30.4407 38.8073 30.5394 38.4818 30.7387C38.1564 30.938 37.8976 31.2288 37.7383 31.5744C37.579 31.92 37.5263 32.3049 37.5869 32.6803C37.6476 33.0557 37.8187 33.4048 38.0788 33.6834C38.3389 33.962 38.6761 34.1576 39.048 34.2454C39.546 34.3616 40.0699 34.2771 40.5056 34.0104C40.9412 33.7437 41.2531 33.3164 41.3733 32.8218Z" fill="#116466"/>
<path d="M3.81078 32.8211C3.89952 32.4512 3.87601 32.0635 3.74322 31.707C3.61043 31.3505 3.37434 31.0412 3.0648 30.8182C2.75526 30.5952 2.3862 30.4685 2.0043 30.4542C1.6224 30.44 1.24482 30.5387 0.919344 30.738C0.593866 30.9372 0.33511 31.2281 0.175814 31.5737C0.0165183 31.9193 -0.0361589 32.3042 0.024447 32.6796C0.085053 33.055 0.256219 33.404 0.516288 33.6826C0.776358 33.9612 1.11364 34.1568 1.48548 34.2447C1.98347 34.3609 2.50745 34.2764 2.94308 34.0097C3.37871 33.743 3.69063 33.3157 3.81078 32.8211Z" fill="#289295"/>
<path d="M35.1135 37.0691C35.2023 36.6993 35.1787 36.3116 35.046 35.9551C34.9132 35.5985 34.6771 35.2892 34.3675 35.0662C34.058 34.8432 33.6889 34.7166 33.307 34.7023C32.9251 34.688 32.5476 34.7868 32.2221 34.986C31.8966 35.1853 31.6378 35.4761 31.4785 35.8217C31.3193 36.1674 31.2666 36.5522 31.3272 36.9276C31.3878 37.303 31.559 37.6521 31.819 37.9307C32.0791 38.2093 32.4164 38.4049 32.7882 38.4927C33.2862 38.6094 33.8104 38.5252 34.2462 38.2584C34.6819 37.9916 34.9938 37.564 35.1135 37.0691Z" fill="#116466"/>
<path d="M10.0959 37.1453C10.1847 36.7754 10.1612 36.3877 10.0284 36.0312C9.89559 35.6747 9.65949 35.3654 9.34996 35.1424C9.04042 34.9194 8.67136 34.7927 8.28945 34.7785C7.90755 34.7642 7.52998 34.8629 7.2045 35.0622C6.87902 35.2615 6.62027 35.5523 6.46097 35.8979C6.30167 36.2435 6.249 36.6284 6.3096 37.0038C6.37021 37.3792 6.54137 37.7283 6.80144 38.0069C7.06151 38.2855 7.3988 38.4811 7.77063 38.5689C8.26863 38.6851 8.7926 38.6006 9.22823 38.3339C9.66386 38.0672 9.97578 37.6399 10.0959 37.1453Z" fill="#289295"/>
<path d="M28.8528 40.9841C28.9415 40.6143 28.918 40.2266 28.7852 39.8701C28.6524 39.5136 28.4163 39.2042 28.1068 38.9812C27.7973 38.7582 27.4282 38.6316 27.0463 38.6173C26.6644 38.6031 26.2868 38.7018 25.9613 38.9011C25.6359 39.1003 25.3771 39.3912 25.2178 39.7368C25.0585 40.0824 25.0058 40.4672 25.0664 40.8426C25.127 41.218 25.2982 41.5671 25.5583 41.8457C25.8184 42.1243 26.1556 42.3199 26.5275 42.4078C27.0251 42.5192 27.5469 42.4327 27.9813 42.1667C28.4157 41.9007 28.7285 41.4763 28.8528 40.9841Z" fill="#116466"/>
<path d="M16.2991 40.9587C16.3878 40.5889 16.3643 40.2012 16.2315 39.8447C16.0987 39.4882 15.8626 39.1788 15.5531 38.9558C15.2435 38.7328 14.8745 38.6062 14.4926 38.5919C14.1107 38.5777 13.7331 38.6764 13.4076 38.8757C13.0821 39.0749 12.8234 39.3658 12.6641 39.7114C12.5048 40.057 12.4521 40.4419 12.5127 40.8173C12.5733 41.1927 12.7445 41.5417 13.0046 41.8203C13.2646 42.0989 13.6019 42.2945 13.9738 42.3824C14.4714 42.4938 14.9931 42.4073 15.4276 42.1413C15.862 41.8753 16.1748 41.4509 16.2991 40.9587Z" fill="#289295"/>
<path d="M22.3938 44.5286C22.4825 44.1587 22.459 43.7711 22.3262 43.4145C22.1934 43.058 21.9573 42.7487 21.6478 42.5257C21.3383 42.3027 20.9692 42.176 20.5873 42.1618C20.2054 42.1475 19.8278 42.2462 19.5024 42.4455C19.1769 42.6448 18.9181 42.9356 18.7588 43.2812C18.5995 43.6268 18.5468 44.0117 18.6075 44.3871C18.6681 44.7625 18.8392 45.1116 19.0993 45.3902C19.3594 45.6688 19.6967 45.8644 20.0685 45.9522C20.5662 46.0641 21.0881 45.9778 21.5227 45.7117C21.9572 45.4457 22.2699 45.021 22.3938 44.5286Z" fill="#289295"/>
<path d="M41.3733 26.3096C41.462 25.9398 41.4385 25.5521 41.3057 25.1955C41.1729 24.839 40.9368 24.5297 40.6273 24.3067C40.3178 24.0837 39.9487 23.957 39.5668 23.9428C39.1849 23.9285 38.8073 24.0272 38.4818 24.2265C38.1564 24.4258 37.8976 24.7166 37.7383 25.0622C37.579 25.4078 37.5263 25.7927 37.5869 26.1681C37.6476 26.5435 37.8187 26.8926 38.0788 27.1712C38.3389 27.4498 38.6761 27.6454 39.048 27.7332C39.546 27.8499 40.0702 27.7656 40.506 27.4989C40.9417 27.2321 41.2536 26.8045 41.3733 26.3096Z" fill="#116466"/>
<path d="M3.81078 26.3091C3.89952 25.9393 3.87601 25.5516 3.74322 25.195C3.61043 24.8385 3.37434 24.5292 3.0648 24.3062C2.75526 24.0832 2.3862 23.9565 2.0043 23.9423C1.6224 23.928 1.24482 24.0267 0.919344 24.226C0.593866 24.4253 0.33511 24.7161 0.175814 25.0617C0.0165183 25.4073 -0.0361589 25.7922 0.024447 26.1676C0.085053 26.543 0.256219 26.8921 0.516288 27.1707C0.776358 27.4493 1.11364 27.6449 1.48548 27.7327C1.98347 27.8489 2.50745 27.7645 2.94308 27.4977C3.37871 27.231 3.69063 26.8037 3.81078 26.3091Z" fill="#289295"/>
<path d="M41.3733 19.7971C41.462 19.4273 41.4385 19.0396 41.3057 18.6831C41.1729 18.3266 40.9368 18.0172 40.6273 17.7942C40.3178 17.5712 39.9487 17.4446 39.5668 17.4303C39.1849 17.416 38.8073 17.5148 38.4818 17.7141C38.1564 17.9133 37.8976 18.2042 37.7383 18.5498C37.579 18.8954 37.5263 19.2802 37.5869 19.6556C37.6476 20.031 37.8187 20.3801 38.0788 20.6587C38.3389 20.9373 38.6761 21.1329 39.048 21.2208C39.546 21.3374 40.0702 21.2532 40.506 20.9864C40.9417 20.7196 41.2536 20.292 41.3733 19.7971Z" fill="#116466"/>
<path d="M3.81078 19.7971C3.89952 19.4273 3.87601 19.0396 3.74322 18.6831C3.61043 18.3266 3.37434 18.0172 3.0648 17.7942C2.75526 17.5712 2.3862 17.4446 2.0043 17.4303C1.6224 17.416 1.24482 17.5148 0.919344 17.7141C0.593866 17.9133 0.33511 18.2042 0.175814 18.5498C0.0165183 18.8954 -0.0361589 19.2802 0.024447 19.6556C0.085053 20.031 0.256219 20.3801 0.516288 20.6587C0.776358 20.9373 1.11364 21.1329 1.48548 21.2208C1.98347 21.337 2.50745 21.2525 2.94308 20.9858C3.37871 20.7191 3.69063 20.2918 3.81078 19.7971Z" fill="#289295"/>
<path d="M41.3733 13.2852C41.462 12.9153 41.4385 12.5276 41.3057 12.1711C41.1729 11.8146 40.9368 11.5053 40.6273 11.2823C40.3178 11.0593 39.9487 10.9326 39.5668 10.9183C39.1849 10.9041 38.8073 11.0028 38.4818 11.2021C38.1564 11.4014 37.8976 11.6922 37.7383 12.0378C37.579 12.3834 37.5263 12.7683 37.5869 13.1437C37.6476 13.5191 37.8187 13.8682 38.0788 14.1468C38.3389 14.4254 38.6761 14.6209 39.048 14.7088C39.546 14.825 40.0699 14.7405 40.5056 14.4738C40.9412 14.2071 41.2531 13.7798 41.3733 13.2852Z" fill="#116466"/>
<path d="M3.81078 13.2852C3.89952 12.9153 3.87601 12.5276 3.74322 12.1711C3.61043 11.8146 3.37434 11.5053 3.0648 11.2823C2.75526 11.0593 2.3862 10.9326 2.0043 10.9183C1.6224 10.9041 1.24482 11.0028 0.919344 11.2021C0.593866 11.4014 0.33511 11.6922 0.175814 12.0378C0.0165183 12.3834 -0.0361589 12.7683 0.024447 13.1437C0.085053 13.5191 0.256219 13.8682 0.516288 14.1468C0.776358 14.4254 1.11364 14.6209 1.48548 14.7088C1.98347 14.825 2.50745 14.7405 2.94308 14.4738C3.37871 14.2071 3.69063 13.7798 3.81078 13.2852Z" fill="#5FC5BD"/>
<path d="M9.32347 9.25977C9.41221 8.88995 9.3887 8.50225 9.25592 8.14573C9.12313 7.7892 8.88703 7.47987 8.5775 7.25687C8.26796 7.03387 7.8989 6.90723 7.51699 6.89296C7.13509 6.87869 6.75752 6.97743 6.43204 7.1767C6.10656 7.37597 5.84781 7.66681 5.68851 8.01242C5.52921 8.35803 5.47654 8.74288 5.53714 9.11828C5.59775 9.49368 5.76891 9.84276 6.02898 10.1214C6.28905 10.4 6.62634 10.5956 6.99817 10.6834C7.49587 10.7953 8.01781 10.709 8.45237 10.4429C8.88692 10.1769 9.19958 9.75221 9.32347 9.25977Z" fill="#5FC5BD"/>
<path d="M15.6877 5.53174C15.7765 5.16192 15.753 4.77422 15.6202 4.4177C15.4874 4.06117 15.2513 3.75184 14.9418 3.52885C14.6322 3.30585 14.2632 3.1792 13.8813 3.16493C13.4994 3.15066 13.1218 3.2494 12.7963 3.44867C12.4708 3.64794 12.2121 3.93878 12.0528 4.28439C11.8935 4.63 11.8408 5.01485 11.9014 5.39025C11.962 5.76565 12.1332 6.11474 12.3932 6.39334C12.6533 6.67193 12.9906 6.86753 13.3624 6.95537C13.8601 7.06725 14.3821 6.98094 14.8166 6.71489C15.2512 6.44884 15.5638 6.02418 15.6877 5.53174Z" fill="#5FC5BD"/>
<path d="M22.2754 2.36425C22.3637 1.99483 22.3399 1.60767 22.2071 1.25171C22.0742 0.895752 21.8382 0.586973 21.529 0.364412C21.2198 0.141851 20.8512 0.0155014 20.4698 0.00133685C20.0884 -0.0128277 19.7113 0.0858288 19.3863 0.284834C19.0612 0.483839 18.8028 0.774257 18.6436 1.11937C18.4844 1.46449 18.4317 1.84881 18.4921 2.22374C18.5524 2.59867 18.7231 2.94738 18.9827 3.22579C19.2422 3.5042 19.5789 3.6998 19.9501 3.78787C20.4478 3.89976 20.9698 3.81344 21.4043 3.54739C21.8389 3.28135 22.1515 2.85669 22.2754 2.36425Z" fill="#5FC5BD"/>
<path d="M28.9182 5.49244C29.0069 5.12262 28.9834 4.73492 28.8506 4.37839C28.7179 4.02187 28.4818 3.71254 28.1722 3.48954C27.8627 3.26654 27.4936 3.13989 27.1117 3.12562C26.7298 3.11135 26.3522 3.2101 26.0268 3.40937C25.7013 3.60863 25.4425 3.89947 25.2832 4.24508C25.1239 4.59069 25.0713 4.97554 25.1319 5.35095C25.1925 5.72635 25.3636 6.07543 25.6237 6.35403C25.8838 6.63263 26.2211 6.82822 26.5929 6.91606C27.0906 7.02795 27.6125 6.94163 28.0471 6.67558C28.4816 6.40954 28.7943 5.98488 28.9182 5.49244Z" fill="#5FC5BD"/>
<path d="M35.3713 9.2295C35.4601 8.85968 35.4366 8.47198 35.3038 8.11545C35.171 7.75893 34.9349 7.4496 34.6253 7.2266C34.3158 7.0036 33.9467 6.87695 33.5648 6.86268C33.1829 6.84841 32.8054 6.94716 32.4799 7.14643C32.1544 7.34569 31.8957 7.63653 31.7364 7.98214C31.5771 8.32775 31.5244 8.7126 31.585 9.08801C31.6456 9.46341 31.8168 9.81249 32.0768 10.0911C32.3369 10.3697 32.6742 10.5653 33.046 10.6531C33.544 10.7698 34.0683 10.6856 34.504 10.4188C34.9398 10.152 35.2516 9.7244 35.3713 9.2295Z" fill="#5FC5BD"/>
<path d="M27.3087 18.5367L21.6743 15.3104C21.3209 15.1065 20.9203 14.9974 20.5117 14.9937C20.1034 14.9955 19.7029 15.1048 19.3508 15.3104L13.8756 18.4406C13.6578 18.5657 13.477 18.7458 13.3513 18.9626C13.2257 19.1794 13.1598 19.4254 13.1602 19.6756V25.9627C13.161 26.3694 13.2685 26.7688 13.4721 27.1215C13.6757 27.4742 13.9683 27.7679 14.321 27.9736L19.9554 31.2034C20.126 31.297 20.3177 31.3462 20.5126 31.3462C20.7074 31.3462 20.8991 31.297 21.0698 31.2034L26.7023 27.9736C27.0555 27.7683 27.3485 27.4747 27.5525 27.122C27.7564 26.7692 27.8641 26.3696 27.865 25.9627V19.503C27.8651 19.3076 27.8138 19.1157 27.7162 18.9461C27.6186 18.7766 27.4781 18.6355 27.3087 18.5367ZM26.951 25.9467C26.9487 26.1964 26.8816 26.4413 26.7563 26.6577C26.6309 26.874 26.4515 27.0545 26.2355 27.1817L21.6851 29.794C21.6126 29.8361 21.5303 29.8583 21.4464 29.8585C21.3625 29.8587 21.2801 29.8368 21.2074 29.795C21.1348 29.7533 21.0745 29.6932 21.0328 29.6208C20.991 29.5485 20.9692 29.4664 20.9696 29.383V28.301C20.9696 28.1948 20.9272 28.093 20.8517 28.0179C20.7762 27.9428 20.6739 27.9006 20.5671 27.9006H20.4491C20.3439 27.9029 20.2438 27.9461 20.1703 28.021C20.0967 28.0958 20.0555 28.1963 20.0556 28.301V29.262C20.0573 29.3588 20.033 29.4544 19.9851 29.5388C19.9372 29.6232 19.8674 29.6933 19.7831 29.7417C19.6987 29.7902 19.6029 29.8154 19.5055 29.8146C19.4081 29.8137 19.3127 29.787 19.2292 29.7371L14.7825 27.1817C14.5639 27.0615 14.3821 26.8847 14.2561 26.6702C14.1302 26.4556 14.0648 26.2112 14.067 25.9627V21.0049C14.0667 20.8935 14.0959 20.784 14.1515 20.6873C14.2072 20.5907 14.2875 20.5103 14.3842 20.4542C14.481 20.3982 14.5909 20.3684 14.7028 20.3679C14.8148 20.3674 14.9249 20.3962 15.0222 20.4515L16.3226 21.1989C16.3837 21.2344 16.4531 21.2532 16.5239 21.2533C16.5946 21.2535 16.6641 21.235 16.7254 21.1997C16.7866 21.1645 16.8374 21.1137 16.8725 21.0526C16.9076 20.9915 16.9259 20.9223 16.9254 20.8519V20.7309C16.9275 20.6591 16.91 20.588 16.8747 20.5253C16.8394 20.4627 16.7877 20.4107 16.725 20.375L15.244 19.5226C15.1716 19.4808 15.1115 19.4209 15.0697 19.3487C15.0279 19.2766 15.0059 19.1948 15.0059 19.1115C15.0059 19.0282 15.0279 18.9464 15.0697 18.8743C15.1115 18.8021 15.1716 18.7422 15.244 18.7004L19.7962 16.0881C20.0129 15.961 20.2602 15.8952 20.5117 15.8977C20.7628 15.8976 21.0096 15.9632 21.2272 16.0881L26.0173 18.8428C26.065 18.8717 26.1045 18.9123 26.1319 18.9608C26.1593 19.0092 26.1737 19.0639 26.1737 19.1195C26.1737 19.1751 26.1593 19.2298 26.1319 19.2782C26.1045 19.3267 26.065 19.3673 26.0173 19.3962L24.6078 20.2041C24.5465 20.2393 24.4956 20.2899 24.4601 20.3508C24.4247 20.4117 24.4059 20.4808 24.4057 20.5511V20.6543C24.4055 20.7248 24.4241 20.794 24.4594 20.855C24.4948 20.9161 24.5457 20.9667 24.607 21.0019C24.6683 21.0371 24.7379 21.0556 24.8087 21.0555C24.8795 21.0554 24.949 21.0367 25.0102 21.0014L26.4788 20.1561C26.5269 20.1284 26.5814 20.1138 26.637 20.1136C26.6926 20.1135 26.7472 20.1278 26.7955 20.1551C26.8438 20.1825 26.884 20.2219 26.9123 20.2695C26.9405 20.3172 26.9557 20.3713 26.9563 20.4266L26.951 25.9467Z" fill="#D1E8E2" stroke="#D1E8E2" stroke-width="0.812397"/>
<path d="M19.3656 25.9642H21.6909C21.8447 25.9633 21.9919 25.9017 22.1002 25.7929C22.2085 25.6842 22.2691 25.5371 22.2686 25.3841V24.0263C22.5644 23.6917 22.7567 23.2793 22.8226 22.8386C22.8884 22.3979 22.825 21.9477 22.6398 21.542C22.4547 21.1363 22.1557 20.7924 21.7788 20.5517C21.402 20.311 20.9632 20.1837 20.5154 20.1851C20.0676 20.1864 19.6296 20.3164 19.2543 20.5595C18.8789 20.8025 18.5821 21.1482 18.3994 21.555C18.2168 21.9618 18.1561 22.4124 18.2247 22.8527C18.2933 23.293 18.4882 23.7042 18.786 24.037V25.3965C18.7893 25.5476 18.8517 25.6914 18.9599 25.7975C19.0681 25.9035 19.2137 25.9633 19.3656 25.9642ZM20.5121 21.3374C20.747 21.3369 20.9766 21.4073 21.1704 21.5394C21.3643 21.6714 21.5133 21.8588 21.5978 22.0769C21.6823 22.295 21.6983 22.5334 21.6437 22.7607C21.5891 22.9881 21.4665 23.1936 21.292 23.3501L21.2669 23.3768L21.2526 23.3928L21.2312 23.4195L21.2151 23.4373C21.2151 23.4373 21.2025 23.4551 21.1972 23.4657L21.1847 23.4853L21.1704 23.5156L21.1596 23.5351L21.1471 23.5672C21.1464 23.5731 21.1464 23.579 21.1471 23.585C21.1427 23.5966 21.1391 23.6085 21.1364 23.6206V23.6401C21.1355 23.652 21.1355 23.6639 21.1364 23.6757C21.1355 23.6828 21.1355 23.69 21.1364 23.6971C21.1354 23.7083 21.1354 23.7196 21.1364 23.7309C21.1364 23.7398 21.1364 23.7469 21.1364 23.7558C21.1364 23.7647 21.1364 23.7683 21.1364 23.7736V24.7915H19.9755V23.7736C19.9746 23.7671 19.9746 23.7605 19.9755 23.754C19.9764 23.7469 19.9764 23.7398 19.9755 23.7327V23.6953C19.9745 23.6894 19.9745 23.6834 19.9755 23.6775C19.9755 23.6633 19.9755 23.6526 19.9755 23.6401V23.6223C19.9727 23.61 19.9685 23.5981 19.963 23.5867C19.964 23.5809 19.964 23.5748 19.963 23.5689C19.9593 23.5572 19.9545 23.5459 19.9487 23.5351C19.9487 23.5351 19.9487 23.5227 19.9397 23.5173L19.9236 23.4871L19.9129 23.4657L19.8932 23.439C19.8891 23.4321 19.8843 23.4256 19.8789 23.4195L19.8575 23.3945L19.8414 23.3768L19.8145 23.3518L19.8056 23.3429C19.6294 23.1876 19.5049 22.9826 19.4487 22.7552C19.3925 22.5278 19.4072 22.2888 19.4909 22.0699C19.5746 21.851 19.7233 21.6626 19.9172 21.5299C20.1112 21.3971 20.3411 21.3263 20.5765 21.3267L20.5121 21.3374Z" fill="#D1E8E2"/>
<path d="M29.0581 10.2581C28.9059 9.99446 28.703 9.76329 28.4609 9.57776C28.2189 9.39223 27.9424 9.25599 27.6474 9.17683C27.3523 9.09766 27.0445 9.07713 26.7415 9.1164C26.4385 9.15566 26.1462 9.25396 25.8814 9.40568L25.8618 9.41635C25.7217 9.50314 25.5608 9.55077 25.3958 9.55421C25.2309 9.55766 25.068 9.51679 24.9245 9.43593L23.1537 8.41804C23.0177 8.33665 22.906 8.22074 22.8299 8.0822C22.7538 7.94367 22.7162 7.78749 22.7208 7.6297C22.7244 7.22242 22.6199 6.8214 22.4178 6.46719C22.2157 6.11299 21.9231 5.81815 21.5698 5.61248C21.2164 5.40682 20.8147 5.29762 20.4053 5.29592C19.9959 5.29422 19.5933 5.40009 19.2382 5.60281C18.8707 5.81765 18.5683 6.12741 18.3633 6.49928C18.1584 6.87115 18.0583 7.29127 18.0738 7.71512C18.0766 7.87964 18.0345 8.04183 17.952 8.18442C17.8695 8.32701 17.7496 8.44465 17.6052 8.52481L15.981 9.45728C15.84 9.54152 15.6786 9.58602 15.5142 9.58602C15.3497 9.58602 15.1883 9.54152 15.0473 9.45728C14.6898 9.23285 14.2776 9.10962 13.855 9.10084C13.4323 9.09206 13.0153 9.19807 12.6487 9.40746C12.2845 9.62025 11.9844 9.92632 11.7796 10.2938C11.5748 10.6612 11.4728 11.0766 11.4842 11.4966C11.4854 11.6601 11.4423 11.8208 11.3596 11.962C11.2768 12.1033 11.1574 12.2197 11.0138 12.2992L9.27163 13.2993C9.13119 13.3823 8.97084 13.4261 8.80747 13.4261C8.6441 13.4261 8.48375 13.3823 8.3433 13.2993C7.98694 13.0811 7.57801 12.9627 7.15963 12.9564C6.74125 12.9501 6.32893 13.0563 5.96613 13.2637C5.43193 13.5749 5.04248 14.083 4.88211 14.6779C4.72175 15.2728 4.80339 15.9065 5.10935 16.442C5.36541 16.8851 5.7618 17.2314 6.23659 17.4268C6.71138 17.6221 7.23784 17.6555 7.73373 17.5218C8.22962 17.388 8.66703 17.0946 8.97762 16.6874C9.2882 16.2802 9.45449 15.7822 9.4505 15.271C9.45404 15.1112 9.49946 14.955 9.58228 14.818C9.66511 14.681 9.78245 14.5678 9.92272 14.4898L11.7364 13.4488C11.8734 13.3669 12.0295 13.3222 12.1893 13.319C12.349 13.3159 12.5068 13.3545 12.6469 13.431C13.0006 13.6291 13.4001 13.7321 13.8061 13.73C14.212 13.7278 14.6104 13.6205 14.962 13.4187C15.3136 13.2169 15.6063 12.9274 15.8113 12.5788C16.0164 12.2303 16.1266 11.8346 16.1313 11.4308C16.1365 11.2723 16.1828 11.1178 16.2655 10.9822C16.3482 10.8466 16.4646 10.7345 16.6035 10.6567L18.3439 9.65837C18.48 9.5772 18.6351 9.53271 18.7938 9.52927C18.9525 9.52584 19.1094 9.56359 19.249 9.63879C19.6017 9.83712 20.0007 9.93941 20.4058 9.93535C20.8109 9.93129 21.2078 9.82102 21.5564 9.61566C21.6946 9.53329 21.8523 9.48875 22.0135 9.48656C22.1746 9.48437 22.3335 9.52461 22.474 9.6032L24.2806 10.6407C24.4157 10.7216 24.5269 10.8367 24.6029 10.9742C24.679 11.1117 24.7171 11.2668 24.7134 11.4237C24.7108 11.8301 24.8165 12.2299 25.0197 12.5825C25.223 12.935 25.5165 13.2277 25.8705 13.4306C26.2244 13.6335 26.6261 13.7395 27.0346 13.7377C27.4431 13.7359 27.8439 13.6264 28.196 13.4203C28.4616 13.2693 28.6947 13.0677 28.8819 12.8269C29.0691 12.5861 29.2067 12.311 29.2867 12.0172C29.3668 11.7234 29.3879 11.4168 29.3486 11.115C29.3094 10.8131 29.2107 10.5219 29.0581 10.2581Z" fill="#5FC5BD"/>
<path d="M27.3895 36.7112C27.6949 36.7079 27.9966 36.6449 28.2775 36.5256C28.5583 36.4063 28.8128 36.2332 29.0264 36.016C29.24 35.7989 29.4086 35.542 29.5224 35.2601C29.6362 34.9781 29.6931 34.6767 29.6898 34.3729V34.3515C29.6825 34.1877 29.7197 34.0249 29.7975 33.8802C29.8752 33.7356 29.9906 33.6144 30.1316 33.5294L31.8898 32.4901C32.0278 32.412 32.1842 32.3718 32.3429 32.3737C32.5017 32.3755 32.6571 32.4194 32.7931 32.5008C33.1511 32.7068 33.5584 32.8125 33.9719 32.8069C34.2774 32.8039 34.5793 32.741 34.8604 32.6218C35.1415 32.5026 35.3962 32.3295 35.61 32.1123C35.8238 31.8952 35.9924 31.6382 36.1064 31.3562C36.2203 31.0741 36.2772 30.7725 36.2739 30.4686C36.2651 30.0449 36.1412 29.6315 35.9155 29.2722C35.6897 28.9128 35.3704 28.6209 34.9914 28.4274C34.846 28.3492 34.7245 28.2333 34.6398 28.0921C34.5551 27.9508 34.5104 27.7894 34.5103 27.6249L34.487 25.7581C34.4827 25.5946 34.5231 25.433 34.6037 25.2904C34.6843 25.1479 34.8022 25.0297 34.9449 24.9485C35.3168 24.7482 35.6267 24.4508 35.8413 24.0883C36.056 23.7258 36.1672 23.312 36.163 22.8913C36.1548 22.4711 36.0335 22.0607 35.8117 21.703C35.5899 21.3453 35.2758 21.0532 34.902 20.8573C34.7583 20.7786 34.6385 20.6629 34.5551 20.5223C34.4717 20.3818 34.4278 20.2215 34.428 20.0583L34.403 18.0563C34.3985 17.8938 34.438 17.7331 34.5172 17.591C34.5965 17.4489 34.7127 17.3306 34.8537 17.2484C35.2193 17.0461 35.5233 16.7493 35.7336 16.3895C35.9439 16.0296 36.0527 15.62 36.0486 15.2037C36.0373 14.5879 35.7826 14.0013 35.3396 13.5709C34.8967 13.1406 34.3012 12.9012 33.6821 12.9046C33.1674 12.908 32.6685 13.0811 32.2633 13.3969C31.8582 13.7127 31.5698 14.1533 31.4434 14.6497C31.317 15.1461 31.3597 15.6701 31.5648 16.1398C31.7698 16.6094 32.1258 16.9981 32.5767 17.2449C32.7153 17.3259 32.8302 17.4417 32.9099 17.5806C32.9896 17.7195 33.0314 17.8768 33.031 18.0368L33.0579 20.1206C33.0617 20.2793 33.024 20.4362 32.9484 20.576C32.8728 20.7158 32.762 20.8336 32.6268 20.9178C32.2801 21.1282 31.9944 21.4247 31.7978 21.7782C31.6012 22.1317 31.5005 22.53 31.5056 22.934C31.5106 23.338 31.6213 23.7337 31.8266 24.0822C32.032 24.4307 32.325 24.7201 32.6769 24.9218C32.8137 25.0035 32.927 25.119 33.0057 25.2571C33.0843 25.3953 33.1257 25.5513 33.1258 25.7101L33.1509 27.7085C33.1546 27.8663 33.1174 28.0224 33.0428 28.1618C32.9683 28.3011 32.8589 28.419 32.7252 28.504C32.3784 28.7124 32.0932 29.0084 31.8985 29.3618C31.7037 29.7153 31.6063 30.1137 31.6162 30.5166C31.6204 30.6769 31.5821 30.8355 31.5052 30.9763C31.4283 31.1172 31.3154 31.2355 31.1779 31.3192L29.3893 32.378C29.2533 32.4561 29.0991 32.4972 28.9421 32.4972C28.7851 32.4972 28.6309 32.4561 28.4949 32.378C28.1837 32.2052 27.8367 32.1058 27.4807 32.0876C27.1247 32.0694 26.7693 32.1329 26.4419 32.2731C26.1145 32.4133 25.8239 32.6266 25.5926 32.8963C25.3612 33.1661 25.1953 33.4851 25.1076 33.8289C25.0199 34.1726 25.0128 34.5317 25.0869 34.8786C25.1609 35.2255 25.3142 35.5508 25.5347 35.8294C25.7553 36.108 26.0372 36.3324 26.3588 36.4853C26.6804 36.6382 27.0331 36.7155 27.3895 36.7112Z" fill="#116466"/>
<path d="M5.06582 21.7844C4.91432 22.0483 4.81659 22.3394 4.7782 22.6409C4.73981 22.9424 4.76152 23.2485 4.84208 23.5417C4.92264 23.8348 5.06049 24.1093 5.24773 24.3495C5.43497 24.5897 5.66794 24.7907 5.93333 24.9413L5.95301 24.9537C6.09925 25.0297 6.22215 25.1435 6.30873 25.2832C6.39532 25.4229 6.44236 25.5833 6.4449 25.7474L6.461 27.7814C6.45952 27.9397 6.41565 28.0947 6.3339 28.2304C6.25215 28.3662 6.13549 28.4778 5.99594 28.5537C5.64062 28.7563 5.34536 29.0485 5.14003 29.401C4.93469 29.7535 4.82655 30.1537 4.82655 30.561C4.82655 30.9684 4.93469 31.3686 5.14003 31.7211C5.34536 32.0736 5.64062 32.3658 5.99594 32.5684C6.36828 32.7748 6.7898 32.8771 7.21585 32.8646C7.6419 32.8521 8.05661 32.7251 8.41604 32.4972C8.55718 32.4115 8.719 32.3654 8.88434 32.3639C9.04967 32.3623 9.21235 32.4053 9.3551 32.4883L10.9864 33.4101C11.1327 33.4875 11.255 33.6031 11.3401 33.7445C11.4252 33.886 11.4699 34.0478 11.4693 34.2127C11.4555 34.633 11.5571 35.0491 11.7633 35.4163C11.9694 35.7834 12.2722 36.0877 12.6391 36.2965C13.0083 36.5011 13.4258 36.6037 13.8483 36.5933C14.2708 36.583 14.6828 36.4602 15.0414 36.2378C15.1825 36.1548 15.3434 36.111 15.5073 36.111C15.6712 36.111 15.8321 36.1548 15.9733 36.2378L17.7244 37.2254C17.8675 37.3038 17.9868 37.419 18.0698 37.5589C18.1529 37.6988 18.1967 37.8583 18.1966 38.0209C18.1879 38.4369 18.2921 38.8475 18.4983 39.2096C18.7045 39.5716 19.005 39.8716 19.3682 40.078C19.9082 40.3791 20.5458 40.4564 21.1427 40.2932C21.7396 40.13 22.2479 39.7394 22.5574 39.206C22.8151 38.7613 22.9168 38.244 22.8464 37.7354C22.7761 37.2269 22.5378 36.7561 22.169 36.3971C21.8002 36.0382 21.3218 35.8114 20.8093 35.7526C20.2967 35.6938 19.7791 35.8063 19.3378 36.0723C19.1985 36.1519 19.0406 36.1938 18.8799 36.1938C18.7192 36.1938 18.5613 36.1519 18.422 36.0723L16.6011 35.0437C16.4614 34.9669 16.3442 34.8553 16.2608 34.72C16.1774 34.5846 16.1307 34.43 16.1253 34.2714C16.1221 33.8658 16.0106 33.4683 15.8022 33.1196C15.5939 32.771 15.2961 32.4837 14.9394 32.2872C14.5874 32.0865 14.1887 31.9808 13.783 31.9808C13.3773 31.9808 12.9786 32.0865 12.6266 32.2872C12.4867 32.3636 12.3293 32.4026 12.1697 32.4004C12.0102 32.3983 11.8539 32.3549 11.7162 32.2747L9.97041 31.2871C9.83163 31.2099 9.71544 31.0981 9.63327 30.9627C9.5511 30.8273 9.50578 30.6729 9.50177 30.5148C9.4954 30.112 9.38242 29.718 9.17422 29.3724C8.96602 29.0269 8.66996 28.7421 8.31587 28.5466C8.17217 28.4714 8.0511 28.3597 7.965 28.2228C7.87889 28.0858 7.83085 27.9286 7.82577 27.7672L7.81146 25.6922C7.81241 25.5345 7.85547 25.3799 7.93625 25.2442C8.01702 25.1085 8.1326 24.9966 8.27115 24.9199C8.57761 24.7394 8.83829 24.4912 9.03308 24.1946C9.22786 23.8979 9.35155 23.5607 9.3946 23.209C9.43765 22.8572 9.3989 22.5003 9.28136 22.1659C9.16381 21.8314 8.9706 21.5282 8.71664 21.2798C8.46268 21.0314 8.15475 20.8443 7.81661 20.733C7.47847 20.6217 7.11915 20.5892 6.76638 20.638C6.4136 20.6867 6.0768 20.8155 5.78195 21.0142C5.4871 21.213 5.24209 21.4765 5.06582 21.7844Z" fill="#289295"/>
</svg>
