<?xml version="1.0" encoding="utf-8"?>
<!-- Generator: Adobe Illustrator 27.3.1, SVG Export Plug-In . SVG Version: 6.00 Build 0)  -->
<svg version="1.1" id="Layer_1" xmlns="http://www.w3.org/2000/svg" xmlns:xlink="http://www.w3.org/1999/xlink" x="0px" y="0px"
	 viewBox="0 0 160 46" style="enable-background:new 0 0 160 46;" xml:space="preserve">
<style type="text/css">
	.st0{fill:#222222;}
	.st1{fill:#116466;}
	.st2{fill:#289295;}
	.st3{fill:#5FC5BD;}
	.st4{fill:#1F211B;stroke:#1F211B;stroke-width:0.8124;}
	.st5{fill:#1F211B;}
</style>
<path class="st0" d="M58.2,22.4c0,1.1-0.9,2-2.1,2h-2.7c-0.1,0-0.2,0-0.3-0.1c-0.1,0-0.2-0.1-0.2-0.2c-0.1-0.1-0.1-0.2-0.2-0.2
	s-0.1-0.2-0.1-0.3v-5.9c0-0.1,0-0.2,0.1-0.3c0-0.1,0.1-0.2,0.2-0.2c0.1-0.1,0.2-0.1,0.2-0.2c0.1,0,0.2-0.1,0.3-0.1h2.7
	c1.2,0,2.1,0.9,2.1,2V22.4z M56.1,13.8h-5.9c-0.1,0-0.2,0-0.3,0.1c-0.1,0-0.2,0.1-0.2,0.2c-0.1,0.1-0.1,0.2-0.2,0.2
	c0,0.1-0.1,0.2-0.1,0.3v18.2c0,0.1,0,0.2,0.1,0.3c0,0.1,0.1,0.2,0.2,0.2c0.1,0.1,0.2,0.1,0.2,0.2c0.1,0,0.2,0.1,0.3,0.1h1.7
	c0.1,0,0.2,0,0.3-0.1c0.1,0,0.2-0.1,0.2-0.2c0.1-0.1,0.1-0.2,0.2-0.2c0-0.1,0.1-0.2,0.1-0.3v-4.4c0-0.1,0-0.2,0.1-0.3
	s0.1-0.2,0.2-0.2c0.1-0.1,0.2-0.1,0.2-0.2c0.1,0,0.2-0.1,0.3-0.1h2.7c2.9,0,5.3-2.3,5.3-5.2V19C61.4,16.1,59,13.8,56.1,13.8
	L56.1,13.8z M74.7,27.5c0,0.7-0.3,1.4-0.8,2c-0.5,0.5-1.2,0.8-2,0.8s-1.4-0.3-2-0.8c-0.5-0.5-0.8-1.2-0.8-2v-7.8
	c0-0.7,0.3-1.4,0.8-2c0.5-0.5,1.2-0.8,2-0.8s1.4,0.3,2,0.8c0.5,0.5,0.8,1.2,0.8,2V27.5z M72,13.8c-1.6,0-3.1,0.6-4.2,1.8
	c-1.1,1.1-1.8,2.6-1.8,4.2v7.8c0,1.6,0.6,3.1,1.8,4.2c1.1,1.1,2.7,1.7,4.2,1.7c1.6,0,3.1-0.6,4.2-1.7c1.1-1.1,1.8-2.6,1.8-4.2v-7.8
	c0-1.6-0.6-3.1-1.8-4.2C75.1,14.4,73.6,13.8,72,13.8z M92.6,33.5h-9.2c-0.1,0-0.2,0-0.3-0.1c-0.1,0-0.2-0.1-0.2-0.2
	c-0.1-0.1-0.1-0.2-0.2-0.2c0-0.1-0.1-0.2-0.1-0.3V14.6c0-0.1,0-0.2,0.1-0.3c0-0.1,0.1-0.2,0.2-0.2c0.1-0.1,0.2-0.1,0.2-0.2
	c0.1,0,0.2-0.1,0.3-0.1H85c0.1,0,0.2,0,0.3,0.1c0.1,0,0.2,0.1,0.2,0.2c0.1,0.1,0.1,0.2,0.2,0.2c0,0.1,0.1,0.2,0.1,0.3v15
	c0,0.1,0,0.2,0.1,0.3c0,0.1,0.1,0.2,0.2,0.2c0.1,0.1,0.2,0.1,0.2,0.2c0.1,0,0.2,0.1,0.3,0.1h6c0.1,0,0.2,0,0.3,0.1
	c0.1,0,0.2,0.1,0.2,0.2s0.1,0.2,0.2,0.2s0.1,0.2,0.1,0.3v1.7c0,0.1,0,0.2-0.1,0.3c0,0.1-0.1,0.2-0.2,0.2c-0.1,0.1-0.2,0.1-0.2,0.2
	C92.7,33.5,92.6,33.5,92.6,33.5L92.6,33.5z M104.7,14.2l-3.8,7.7c0,0.1-0.1,0.1-0.1,0.1c0,0-0.1,0-0.2,0c-0.1,0-0.1,0-0.2,0
	c0,0-0.1-0.1-0.1-0.1l-3.8-7.7c-0.1-0.1-0.2-0.2-0.3-0.3c-0.1-0.1-0.3-0.1-0.4-0.1h-1.9c-0.1,0-0.3,0-0.4,0.1
	c-0.1,0.1-0.2,0.2-0.3,0.3c-0.1,0.1-0.1,0.2-0.1,0.4c0,0.1,0,0.3,0.1,0.4l5.6,11.3c0.1,0.1,0.1,0.2,0.1,0.3v6.2c0,0.1,0,0.2,0.1,0.3
	c0,0.1,0.1,0.2,0.2,0.2c0.1,0.1,0.2,0.1,0.2,0.2c0.1,0,0.2,0.1,0.3,0.1h1.7c0.1,0,0.2,0,0.3-0.1c0.1,0,0.2-0.1,0.2-0.2
	c0.1-0.1,0.1-0.2,0.2-0.2c0-0.1,0.1-0.2,0.1-0.3v-6.1c0-0.1,0-0.2,0.1-0.3l5.7-11.4c0.1-0.1,0.1-0.2,0.1-0.4c0-0.1,0-0.3-0.1-0.4
	c-0.1-0.1-0.2-0.2-0.3-0.3c-0.1-0.1-0.2-0.1-0.4-0.1h-1.9c-0.1,0-0.3,0-0.4,0.1C104.9,14,104.8,14.1,104.7,14.2z M116,32.8v-6.4
	c0-0.1,0-0.1,0.1-0.2l0.6-0.8c0,0,0.1-0.1,0.1-0.1c0,0,0.1,0,0.2,0c0.1,0,0.1,0,0.1,0.1c0,0,0.1,0.1,0.1,0.1l4.4,7.7
	c0.1,0.1,0.2,0.2,0.3,0.3c0.1,0.1,0.3,0.1,0.4,0.1h1.9c0.1,0,0.3,0,0.4-0.1c0.1-0.1,0.2-0.2,0.3-0.3c0.1-0.1,0.1-0.2,0.1-0.4
	c0-0.1,0-0.3-0.1-0.4l-5.6-9.7c-0.1-0.1-0.1-0.3-0.1-0.4c0-0.2,0.1-0.3,0.2-0.4l5.3-6.8c0.1-0.1,0.1-0.2,0.2-0.4s0-0.3-0.1-0.4
	c-0.1-0.1-0.2-0.2-0.3-0.3c-0.1-0.1-0.3-0.1-0.4-0.1h-2.2c-0.1,0-0.2,0-0.3,0.1c-0.1,0.1-0.2,0.1-0.3,0.2l-4.8,6.1
	c0,0.1-0.1,0.1-0.2,0.1c-0.1,0-0.1,0-0.2,0s-0.1-0.1-0.1-0.1c0-0.1-0.1-0.1,0-0.2v-5.4c0-0.1,0-0.2-0.1-0.3c0-0.1-0.1-0.2-0.2-0.2
	c-0.1-0.1-0.2-0.1-0.2-0.2c-0.1,0-0.2-0.1-0.3-0.1h-1.7c-0.1,0-0.2,0-0.3,0.1c-0.1,0-0.2,0.1-0.2,0.2c-0.1,0.1-0.1,0.2-0.2,0.2
	c0,0.1-0.1,0.2-0.1,0.3v18.2c0,0.1,0,0.2,0.1,0.3c0,0.1,0.1,0.2,0.2,0.2c0.1,0.1,0.2,0.1,0.2,0.2c0.1,0,0.2,0.1,0.3,0.1h1.7
	c0.1,0,0.2,0,0.3-0.1c0.1,0,0.2-0.1,0.2-0.2c0.1-0.1,0.1-0.2,0.2-0.2C116,32.9,116,32.8,116,32.8L116,32.8z M130.4,33.5h9.2
	c0.1,0,0.2,0,0.3-0.1c0.1,0,0.2-0.1,0.2-0.2c0.1-0.1,0.1-0.2,0.2-0.2c0-0.1,0.1-0.2,0.1-0.3v-1.7c0-0.1,0-0.2-0.1-0.3
	c0-0.1-0.1-0.2-0.2-0.2c-0.1-0.1-0.2-0.1-0.2-0.2c-0.1,0-0.2-0.1-0.3-0.1h-6c-0.1,0-0.2,0-0.3-0.1c-0.1,0-0.2-0.1-0.2-0.2
	c-0.1-0.1-0.1-0.2-0.2-0.2c0-0.1-0.1-0.2-0.1-0.3V26c0-0.1,0-0.2,0.1-0.3c0-0.1,0.1-0.2,0.2-0.2c0.1-0.1,0.2-0.1,0.2-0.2
	c0.1,0,0.2-0.1,0.3-0.1h3.4c0.1,0,0.2,0,0.3-0.1c0.1,0,0.2-0.1,0.2-0.2c0.1-0.1,0.1-0.2,0.2-0.2c0-0.1,0.1-0.2,0.1-0.3v-1.7
	c0-0.1,0-0.2-0.1-0.3c0-0.1-0.1-0.2-0.2-0.2c-0.1-0.1-0.2-0.1-0.2-0.2c-0.1,0-0.2-0.1-0.3-0.1h-3.4c-0.1,0-0.2,0-0.3-0.1
	c-0.1,0-0.2-0.1-0.2-0.2c-0.1-0.1-0.1-0.2-0.2-0.2c0-0.1-0.1-0.2-0.1-0.3v-3.5c0-0.1,0-0.2,0.1-0.3c0-0.1,0.1-0.2,0.2-0.2
	c0.1-0.1,0.2-0.1,0.2-0.2c0.1,0,0.2-0.1,0.3-0.1h6c0.1,0,0.2,0,0.3-0.1c0.1,0,0.2-0.1,0.2-0.2c0.1-0.1,0.1-0.2,0.2-0.2
	c0-0.1,0.1-0.2,0.1-0.3v-1.7c0-0.1,0-0.2-0.1-0.3c0-0.1-0.1-0.2-0.2-0.2c-0.1-0.1-0.2-0.1-0.2-0.2c-0.1,0-0.2-0.1-0.3-0.1h-9.2
	c-0.1,0-0.2,0-0.3,0.1s-0.2,0.1-0.2,0.2c-0.1,0.1-0.1,0.2-0.2,0.2c0,0.1-0.1,0.2-0.1,0.3v18.2c0,0.1,0,0.2,0.1,0.3
	c0,0.1,0.1,0.2,0.2,0.2c0.1,0.1,0.2,0.1,0.2,0.2s0.2,0.1,0.3,0.1V33.5z M156.7,14.2l-3.8,7.7c0,0.1-0.1,0.1-0.1,0.1c0,0-0.1,0-0.2,0
	c-0.1,0-0.1,0-0.2,0c0,0-0.1-0.1-0.1-0.1l-3.8-7.7c-0.1-0.1-0.2-0.2-0.3-0.3c-0.1-0.1-0.3-0.1-0.4-0.1h-1.9c-0.1,0-0.3,0-0.4,0.1
	c-0.1,0.1-0.2,0.2-0.3,0.3c-0.1,0.1-0.1,0.2-0.1,0.4c0,0.1,0,0.3,0.1,0.4l5.6,11.3c0.1,0.1,0.1,0.2,0.1,0.3v6.2c0,0.1,0,0.2,0.1,0.3
	c0,0.1,0.1,0.2,0.2,0.2c0.1,0.1,0.2,0.1,0.2,0.2s0.2,0.1,0.3,0.1h1.7c0.1,0,0.2,0,0.3-0.1c0.1,0,0.2-0.1,0.2-0.2
	c0.1-0.1,0.1-0.2,0.2-0.2c0-0.1,0.1-0.2,0.1-0.3v-6.1c0-0.1,0-0.2,0.1-0.3l5.7-11.4c0.1-0.1,0.1-0.2,0.1-0.4c0-0.1,0-0.3-0.1-0.4
	s-0.2-0.2-0.3-0.3c-0.1-0.1-0.2-0.1-0.4-0.1h-1.9c-0.1,0-0.3,0-0.4,0.1C156.8,14,156.7,14.1,156.7,14.2z"/>
<path class="st1" d="M41.4,32.8c0.1-0.4,0.1-0.8-0.1-1.1c-0.1-0.4-0.4-0.7-0.7-0.9c-0.3-0.2-0.7-0.3-1.1-0.4c-0.4,0-0.8,0.1-1.1,0.3
	c-0.3,0.2-0.6,0.5-0.7,0.8c-0.2,0.3-0.2,0.7-0.2,1.1c0.1,0.4,0.2,0.7,0.5,1c0.3,0.3,0.6,0.5,1,0.6c0.5,0.1,1,0,1.5-0.2
	C40.9,33.7,41.3,33.3,41.4,32.8z"/>
<path class="st2" d="M3.8,32.8c0.1-0.4,0.1-0.8-0.1-1.1c-0.1-0.4-0.4-0.7-0.7-0.9c-0.3-0.2-0.7-0.3-1.1-0.4c-0.4,0-0.8,0.1-1.1,0.3
	c-0.3,0.2-0.6,0.5-0.7,0.8C0,31.9,0,32.3,0,32.7c0.1,0.4,0.2,0.7,0.5,1c0.3,0.3,0.6,0.5,1,0.6c0.5,0.1,1,0,1.5-0.2
	S3.7,33.3,3.8,32.8z"/>
<path class="st1" d="M35.1,37.1c0.1-0.4,0.1-0.8-0.1-1.1c-0.1-0.4-0.4-0.7-0.7-0.9c-0.3-0.2-0.7-0.3-1.1-0.4c-0.4,0-0.8,0.1-1.1,0.3
	c-0.3,0.2-0.6,0.5-0.7,0.8c-0.2,0.3-0.2,0.7-0.2,1.1s0.2,0.7,0.5,1c0.3,0.3,0.6,0.5,1,0.6c0.5,0.1,1,0,1.5-0.2
	C34.7,38,35,37.6,35.1,37.1z"/>
<path class="st2" d="M10.1,37.1c0.1-0.4,0.1-0.8-0.1-1.1c-0.1-0.4-0.4-0.7-0.7-0.9c-0.3-0.2-0.7-0.3-1.1-0.4c-0.4,0-0.8,0.1-1.1,0.3
	c-0.3,0.2-0.6,0.5-0.7,0.8S6.2,36.6,6.3,37c0.1,0.4,0.2,0.7,0.5,1c0.3,0.3,0.6,0.5,1,0.6c0.5,0.1,1,0,1.5-0.2
	C9.7,38.1,10,37.6,10.1,37.1z"/>
<path class="st1" d="M28.9,41c0.1-0.4,0.1-0.8-0.1-1.1c-0.1-0.4-0.4-0.7-0.7-0.9s-0.7-0.3-1.1-0.4c-0.4,0-0.8,0.1-1.1,0.3
	c-0.3,0.2-0.6,0.5-0.7,0.8s-0.2,0.7-0.2,1.1c0.1,0.4,0.2,0.7,0.5,1s0.6,0.5,1,0.6c0.5,0.1,1,0,1.5-0.2C28.4,41.9,28.7,41.5,28.9,41z
	"/>
<path class="st2" d="M16.3,41c0.1-0.4,0.1-0.8-0.1-1.1c-0.1-0.4-0.4-0.7-0.7-0.9c-0.3-0.2-0.7-0.3-1.1-0.4c-0.4,0-0.8,0.1-1.1,0.3
	c-0.3,0.2-0.6,0.5-0.7,0.8s-0.2,0.7-0.2,1.1s0.2,0.7,0.5,1c0.3,0.3,0.6,0.5,1,0.6c0.5,0.1,1,0,1.5-0.2C15.9,41.9,16.2,41.5,16.3,41z
	"/>
<path class="st2" d="M22.4,44.5c0.1-0.4,0.1-0.8-0.1-1.1c-0.1-0.4-0.4-0.7-0.7-0.9s-0.7-0.3-1.1-0.4c-0.4,0-0.8,0.1-1.1,0.3
	c-0.3,0.2-0.6,0.5-0.7,0.8s-0.2,0.7-0.2,1.1c0.1,0.4,0.2,0.7,0.5,1c0.3,0.3,0.6,0.5,1,0.6c0.5,0.1,1,0,1.5-0.2
	C22,45.4,22.3,45,22.4,44.5z"/>
<path class="st1" d="M41.4,26.3c0.1-0.4,0.1-0.8-0.1-1.1c-0.1-0.4-0.4-0.7-0.7-0.9c-0.3-0.2-0.7-0.3-1.1-0.4c-0.4,0-0.8,0.1-1.1,0.3
	c-0.3,0.2-0.6,0.5-0.7,0.8c-0.2,0.3-0.2,0.7-0.2,1.1c0.1,0.4,0.2,0.7,0.5,1s0.6,0.5,1,0.6c0.5,0.1,1,0,1.5-0.2
	C40.9,27.2,41.3,26.8,41.4,26.3z"/>
<path class="st2" d="M3.8,26.3c0.1-0.4,0.1-0.8-0.1-1.1c-0.1-0.4-0.4-0.7-0.7-0.9S2.4,24,2,23.9c-0.4,0-0.8,0.1-1.1,0.3
	c-0.3,0.2-0.6,0.5-0.7,0.8C0,25.4,0,25.8,0,26.2c0.1,0.4,0.2,0.7,0.5,1c0.3,0.3,0.6,0.5,1,0.6c0.5,0.1,1,0,1.5-0.2
	C3.4,27.2,3.7,26.8,3.8,26.3z"/>
<path class="st1" d="M41.4,19.8c0.1-0.4,0.1-0.8-0.1-1.1c-0.1-0.4-0.4-0.7-0.7-0.9c-0.3-0.2-0.7-0.3-1.1-0.4s-0.8,0.1-1.1,0.3
	c-0.3,0.2-0.6,0.5-0.7,0.8c-0.2,0.3-0.2,0.7-0.2,1.1c0.1,0.4,0.2,0.7,0.5,1c0.3,0.3,0.6,0.5,1,0.6c0.5,0.1,1,0,1.5-0.2
	C40.9,20.7,41.3,20.3,41.4,19.8z"/>
<path class="st2" d="M3.8,19.8c0.1-0.4,0.1-0.8-0.1-1.1c-0.1-0.4-0.4-0.7-0.7-0.9c-0.3-0.2-0.7-0.3-1.1-0.4s-0.8,0.1-1.1,0.3
	c-0.3,0.2-0.6,0.5-0.7,0.8C0,18.9,0,19.3,0,19.7c0.1,0.4,0.2,0.7,0.5,1c0.3,0.3,0.6,0.5,1,0.6c0.5,0.1,1,0,1.5-0.2
	C3.4,20.7,3.7,20.3,3.8,19.8z"/>
<path class="st1" d="M41.4,13.3c0.1-0.4,0.1-0.8-0.1-1.1c-0.1-0.4-0.4-0.7-0.7-0.9c-0.3-0.2-0.7-0.3-1.1-0.4c-0.4,0-0.8,0.1-1.1,0.3
	c-0.3,0.2-0.6,0.5-0.7,0.8c-0.2,0.3-0.2,0.7-0.2,1.1c0.1,0.4,0.2,0.7,0.5,1s0.6,0.5,1,0.6c0.5,0.1,1,0,1.5-0.2
	C40.9,14.2,41.3,13.8,41.4,13.3z"/>
<path class="st3" d="M3.8,13.3c0.1-0.4,0.1-0.8-0.1-1.1c-0.1-0.4-0.4-0.7-0.7-0.9S2.4,10.9,2,10.9c-0.4,0-0.8,0.1-1.1,0.3
	c-0.3,0.2-0.6,0.5-0.7,0.8C0,12.4,0,12.8,0,13.1c0.1,0.4,0.2,0.7,0.5,1c0.3,0.3,0.6,0.5,1,0.6c0.5,0.1,1,0,1.5-0.2
	C3.4,14.2,3.7,13.8,3.8,13.3z"/>
<path class="st3" d="M9.3,9.3c0.1-0.4,0.1-0.8-0.1-1.1C9.1,7.8,8.9,7.5,8.6,7.3C8.3,7,7.9,6.9,7.5,6.9C7.1,6.9,6.8,7,6.4,7.2
	C6.1,7.4,5.8,7.7,5.7,8C5.5,8.4,5.5,8.7,5.5,9.1c0.1,0.4,0.2,0.7,0.5,1c0.3,0.3,0.6,0.5,1,0.6c0.5,0.1,1,0,1.5-0.2
	C8.9,10.2,9.2,9.8,9.3,9.3z"/>
<path class="st3" d="M15.7,5.5c0.1-0.4,0.1-0.8-0.1-1.1c-0.1-0.4-0.4-0.7-0.7-0.9c-0.3-0.2-0.7-0.3-1.1-0.4c-0.4,0-0.8,0.1-1.1,0.3
	c-0.3,0.2-0.6,0.5-0.7,0.8S11.8,5,11.9,5.4c0.1,0.4,0.2,0.7,0.5,1c0.3,0.3,0.6,0.5,1,0.6c0.5,0.1,1,0,1.5-0.2
	C15.3,6.4,15.6,6,15.7,5.5z"/>
<path class="st3" d="M22.3,2.4c0.1-0.4,0.1-0.8-0.1-1.1c-0.1-0.4-0.4-0.7-0.7-0.9C21.2,0.1,20.9,0,20.5,0c-0.4,0-0.8,0.1-1.1,0.3
	c-0.3,0.2-0.6,0.5-0.7,0.8c-0.2,0.3-0.2,0.7-0.2,1.1c0.1,0.4,0.2,0.7,0.5,1c0.3,0.3,0.6,0.5,1,0.6c0.5,0.1,1,0,1.5-0.2
	C21.8,3.3,22.2,2.9,22.3,2.4z"/>
<path class="st3" d="M28.9,5.5C29,5.1,29,4.7,28.9,4.4c-0.1-0.4-0.4-0.7-0.7-0.9c-0.3-0.2-0.7-0.3-1.1-0.4c-0.4,0-0.8,0.1-1.1,0.3
	c-0.3,0.2-0.6,0.5-0.7,0.8S25.1,5,25.1,5.4c0.1,0.4,0.2,0.7,0.5,1c0.3,0.3,0.6,0.5,1,0.6c0.5,0.1,1,0,1.5-0.2
	C28.5,6.4,28.8,6,28.9,5.5z"/>
<path class="st3" d="M35.4,9.2c0.1-0.4,0.1-0.8-0.1-1.1c-0.1-0.4-0.4-0.7-0.7-0.9c-0.3-0.2-0.7-0.3-1.1-0.4s-0.8,0.1-1.1,0.3
	c-0.3,0.2-0.6,0.5-0.7,0.8s-0.2,0.7-0.2,1.1c0.1,0.4,0.2,0.7,0.5,1c0.3,0.3,0.6,0.5,1,0.6c0.5,0.1,1,0,1.5-0.2
	C34.9,10.2,35.3,9.7,35.4,9.2z"/>
<path class="st4" d="M27.3,18.5l-5.6-3.2c-0.4-0.2-0.8-0.3-1.2-0.3c-0.4,0-0.8,0.1-1.2,0.3l-5.5,3.1c-0.2,0.1-0.4,0.3-0.5,0.5
	c-0.1,0.2-0.2,0.5-0.2,0.7V26c0,0.4,0.1,0.8,0.3,1.2s0.5,0.6,0.8,0.9l5.6,3.2c0.2,0.1,0.4,0.1,0.6,0.1c0.2,0,0.4,0,0.6-0.1l5.6-3.2
	c0.4-0.2,0.6-0.5,0.9-0.9c0.2-0.4,0.3-0.8,0.3-1.2v-6.5c0-0.2-0.1-0.4-0.1-0.6C27.6,18.8,27.5,18.6,27.3,18.5z M27,25.9
	c0,0.2-0.1,0.5-0.2,0.7c-0.1,0.2-0.3,0.4-0.5,0.5l-4.6,2.6c-0.1,0-0.2,0.1-0.2,0.1s-0.2,0-0.2-0.1c-0.1,0-0.1-0.1-0.2-0.2
	c0-0.1-0.1-0.2-0.1-0.2v-1.1c0-0.1,0-0.2-0.1-0.3s-0.2-0.1-0.3-0.1h-0.1c-0.1,0-0.2,0-0.3,0.1c-0.1,0.1-0.1,0.2-0.1,0.3v1
	c0,0.1,0,0.2-0.1,0.3c0,0.1-0.1,0.2-0.2,0.2c-0.1,0-0.2,0.1-0.3,0.1c-0.1,0-0.2,0-0.3-0.1l-4.4-2.6c-0.2-0.1-0.4-0.3-0.5-0.5
	c-0.1-0.2-0.2-0.5-0.2-0.7v-5c0-0.1,0-0.2,0.1-0.3c0.1-0.1,0.1-0.2,0.2-0.2c0.1-0.1,0.2-0.1,0.3-0.1c0.1,0,0.2,0,0.3,0.1l1.3,0.7
	c0.1,0,0.1,0.1,0.2,0.1c0.1,0,0.1,0,0.2-0.1c0.1,0,0.1-0.1,0.1-0.1c0-0.1,0.1-0.1,0.1-0.2v-0.1c0-0.1,0-0.1-0.1-0.2
	c0-0.1-0.1-0.1-0.1-0.2l-1.5-0.9c-0.1,0-0.1-0.1-0.2-0.2c0-0.1-0.1-0.2-0.1-0.2s0-0.2,0.1-0.2c0-0.1,0.1-0.1,0.2-0.2l4.6-2.6
	c0.2-0.1,0.5-0.2,0.7-0.2c0.3,0,0.5,0.1,0.7,0.2l4.8,2.8c0,0,0.1,0.1,0.1,0.1c0,0,0,0.1,0,0.2c0,0.1,0,0.1,0,0.2
	c0,0-0.1,0.1-0.1,0.1l-1.4,0.8c-0.1,0-0.1,0.1-0.1,0.1c0,0.1-0.1,0.1-0.1,0.2v0.1c0,0.1,0,0.1,0.1,0.2c0,0.1,0.1,0.1,0.1,0.1
	s0.1,0.1,0.2,0.1c0.1,0,0.1,0,0.2-0.1l1.5-0.8c0,0,0.1,0,0.2,0c0.1,0,0.1,0,0.2,0c0,0,0.1,0.1,0.1,0.1c0,0,0,0.1,0,0.2L27,25.9z"/>
<path class="st5" d="M19.4,26h2.3c0.2,0,0.3-0.1,0.4-0.2c0.1-0.1,0.2-0.3,0.2-0.4V24c0.3-0.3,0.5-0.7,0.6-1.2c0.1-0.4,0-0.9-0.2-1.3
	c-0.2-0.4-0.5-0.7-0.9-1c-0.4-0.2-0.8-0.4-1.3-0.4c-0.4,0-0.9,0.1-1.3,0.4c-0.4,0.2-0.7,0.6-0.9,1c-0.2,0.4-0.2,0.9-0.2,1.3
	c0.1,0.4,0.3,0.9,0.6,1.2v1.4c0,0.2,0.1,0.3,0.2,0.4C19.1,25.9,19.2,26,19.4,26z M20.5,21.3c0.2,0,0.5,0.1,0.7,0.2
	c0.2,0.1,0.3,0.3,0.4,0.5c0.1,0.2,0.1,0.5,0,0.7c-0.1,0.2-0.2,0.4-0.4,0.6l0,0l0,0l0,0l0,0c0,0,0,0,0,0l0,0l0,0l0,0l0,0c0,0,0,0,0,0
	c0,0,0,0,0,0v0c0,0,0,0,0,0c0,0,0,0,0,0c0,0,0,0,0,0c0,0,0,0,0,0s0,0,0,0v1H20v-1c0,0,0,0,0,0c0,0,0,0,0,0v0c0,0,0,0,0,0
	c0,0,0,0,0,0v0c0,0,0,0,0,0c0,0,0,0,0,0c0,0,0,0,0,0c0,0,0,0,0,0l0,0l0,0l0,0c0,0,0,0,0,0l0,0l0,0l0,0l0,0c-0.2-0.2-0.3-0.4-0.4-0.6
	s0-0.5,0-0.7c0.1-0.2,0.2-0.4,0.4-0.5C20.1,21.4,20.3,21.3,20.5,21.3L20.5,21.3z"/>
<path class="st3" d="M29.1,10.3c-0.2-0.3-0.4-0.5-0.6-0.7c-0.2-0.2-0.5-0.3-0.8-0.4c-0.3-0.1-0.6-0.1-0.9-0.1
	c-0.3,0-0.6,0.1-0.9,0.3l0,0c-0.1,0.1-0.3,0.1-0.5,0.1c-0.2,0-0.3,0-0.5-0.1l-1.8-1c-0.1-0.1-0.2-0.2-0.3-0.3
	c-0.1-0.1-0.1-0.3-0.1-0.5c0-0.4-0.1-0.8-0.3-1.2c-0.2-0.4-0.5-0.6-0.8-0.9c-0.4-0.2-0.8-0.3-1.2-0.3c-0.4,0-0.8,0.1-1.2,0.3
	c-0.4,0.2-0.7,0.5-0.9,0.9c-0.2,0.4-0.3,0.8-0.3,1.2c0,0.2,0,0.3-0.1,0.5c-0.1,0.1-0.2,0.3-0.3,0.3L16,9.5c-0.1,0.1-0.3,0.1-0.5,0.1
	c-0.2,0-0.3,0-0.5-0.1c-0.4-0.2-0.8-0.3-1.2-0.4c-0.4,0-0.8,0.1-1.2,0.3c-0.4,0.2-0.7,0.5-0.9,0.9c-0.2,0.4-0.3,0.8-0.3,1.2
	c0,0.2,0,0.3-0.1,0.5c-0.1,0.1-0.2,0.3-0.3,0.3l-1.7,1c-0.1,0.1-0.3,0.1-0.5,0.1s-0.3,0-0.5-0.1C8,13.1,7.6,13,7.2,13
	c-0.4,0-0.8,0.1-1.2,0.3c-0.5,0.3-0.9,0.8-1.1,1.4c-0.2,0.6-0.1,1.2,0.2,1.8c0.3,0.4,0.7,0.8,1.1,1c0.5,0.2,1,0.2,1.5,0.1
	c0.5-0.1,0.9-0.4,1.2-0.8c0.3-0.4,0.5-0.9,0.5-1.4c0-0.2,0-0.3,0.1-0.5c0.1-0.1,0.2-0.3,0.3-0.3l1.8-1c0.1-0.1,0.3-0.1,0.5-0.1
	c0.2,0,0.3,0,0.5,0.1c0.4,0.2,0.8,0.3,1.2,0.3c0.4,0,0.8-0.1,1.2-0.3c0.4-0.2,0.6-0.5,0.8-0.8c0.2-0.3,0.3-0.7,0.3-1.1
	c0-0.2,0.1-0.3,0.1-0.4c0.1-0.1,0.2-0.2,0.3-0.3l1.7-1c0.1-0.1,0.3-0.1,0.4-0.1c0.2,0,0.3,0,0.5,0.1c0.4,0.2,0.8,0.3,1.2,0.3
	c0.4,0,0.8-0.1,1.2-0.3c0.1-0.1,0.3-0.1,0.5-0.1c0.2,0,0.3,0,0.5,0.1l1.8,1c0.1,0.1,0.2,0.2,0.3,0.3c0.1,0.1,0.1,0.3,0.1,0.4
	c0,0.4,0.1,0.8,0.3,1.2c0.2,0.4,0.5,0.6,0.9,0.8c0.4,0.2,0.8,0.3,1.2,0.3c0.4,0,0.8-0.1,1.2-0.3c0.3-0.2,0.5-0.4,0.7-0.6
	c0.2-0.2,0.3-0.5,0.4-0.8c0.1-0.3,0.1-0.6,0.1-0.9C29.3,10.8,29.2,10.5,29.1,10.3z"/>
<path class="st1" d="M27.4,36.7c0.3,0,0.6-0.1,0.9-0.2c0.3-0.1,0.5-0.3,0.7-0.5c0.2-0.2,0.4-0.5,0.5-0.8c0.1-0.3,0.2-0.6,0.2-0.9v0
	c0-0.2,0-0.3,0.1-0.5c0.1-0.1,0.2-0.3,0.3-0.4l1.8-1c0.1-0.1,0.3-0.1,0.5-0.1c0.2,0,0.3,0,0.5,0.1c0.4,0.2,0.8,0.3,1.2,0.3
	c0.3,0,0.6-0.1,0.9-0.2c0.3-0.1,0.5-0.3,0.7-0.5c0.2-0.2,0.4-0.5,0.5-0.8c0.1-0.3,0.2-0.6,0.2-0.9c0-0.4-0.1-0.8-0.4-1.2
	c-0.2-0.4-0.5-0.7-0.9-0.8c-0.1-0.1-0.3-0.2-0.4-0.3c-0.1-0.1-0.1-0.3-0.1-0.5l0-1.9c0-0.2,0-0.3,0.1-0.5c0.1-0.1,0.2-0.3,0.3-0.3
	c0.4-0.2,0.7-0.5,0.9-0.9c0.2-0.4,0.3-0.8,0.3-1.2c0-0.4-0.1-0.8-0.4-1.2c-0.2-0.4-0.5-0.6-0.9-0.8c-0.1-0.1-0.3-0.2-0.3-0.3
	c-0.1-0.1-0.1-0.3-0.1-0.5l0-2c0-0.2,0-0.3,0.1-0.5c0.1-0.1,0.2-0.3,0.3-0.3c0.4-0.2,0.7-0.5,0.9-0.9c0.2-0.4,0.3-0.8,0.3-1.2
	c0-0.6-0.3-1.2-0.7-1.6c-0.4-0.4-1-0.7-1.7-0.7c-0.5,0-1,0.2-1.4,0.5c-0.4,0.3-0.7,0.8-0.8,1.3s-0.1,1,0.1,1.5
	c0.2,0.5,0.6,0.9,1,1.1c0.1,0.1,0.3,0.2,0.3,0.3C33,17.7,33,17.9,33,18l0,2.1c0,0.2,0,0.3-0.1,0.5c-0.1,0.1-0.2,0.3-0.3,0.3
	c-0.3,0.2-0.6,0.5-0.8,0.9s-0.3,0.8-0.3,1.2c0,0.4,0.1,0.8,0.3,1.1c0.2,0.3,0.5,0.6,0.9,0.8c0.1,0.1,0.3,0.2,0.3,0.3
	c0.1,0.1,0.1,0.3,0.1,0.5l0,2c0,0.2,0,0.3-0.1,0.5c-0.1,0.1-0.2,0.3-0.3,0.3c-0.3,0.2-0.6,0.5-0.8,0.9c-0.2,0.4-0.3,0.8-0.3,1.2
	c0,0.2,0,0.3-0.1,0.5c-0.1,0.1-0.2,0.3-0.3,0.3l-1.8,1.1c-0.1,0.1-0.3,0.1-0.4,0.1s-0.3,0-0.4-0.1c-0.3-0.2-0.7-0.3-1-0.3
	c-0.4,0-0.7,0-1,0.2c-0.3,0.1-0.6,0.4-0.8,0.6c-0.2,0.3-0.4,0.6-0.5,0.9c-0.1,0.3-0.1,0.7,0,1c0.1,0.3,0.2,0.7,0.4,1
	c0.2,0.3,0.5,0.5,0.8,0.7C26.7,36.6,27,36.7,27.4,36.7z"/>
<path class="st2" d="M5.1,21.8c-0.2,0.3-0.2,0.6-0.3,0.9c0,0.3,0,0.6,0.1,0.9c0.1,0.3,0.2,0.6,0.4,0.8c0.2,0.2,0.4,0.4,0.7,0.6l0,0
	c0.1,0.1,0.3,0.2,0.4,0.3c0.1,0.1,0.1,0.3,0.1,0.5l0,2c0,0.2,0,0.3-0.1,0.4c-0.1,0.1-0.2,0.2-0.3,0.3c-0.4,0.2-0.7,0.5-0.9,0.8
	c-0.2,0.4-0.3,0.8-0.3,1.2c0,0.4,0.1,0.8,0.3,1.2c0.2,0.4,0.5,0.6,0.9,0.8c0.4,0.2,0.8,0.3,1.2,0.3c0.4,0,0.8-0.1,1.2-0.4
	c0.1-0.1,0.3-0.1,0.5-0.1c0.2,0,0.3,0,0.5,0.1l1.6,0.9c0.1,0.1,0.3,0.2,0.4,0.3c0.1,0.1,0.1,0.3,0.1,0.5c0,0.4,0.1,0.8,0.3,1.2
	c0.2,0.4,0.5,0.7,0.9,0.9c0.4,0.2,0.8,0.3,1.2,0.3c0.4,0,0.8-0.1,1.2-0.4c0.1-0.1,0.3-0.1,0.5-0.1c0.2,0,0.3,0,0.5,0.1l1.8,1
	c0.1,0.1,0.3,0.2,0.3,0.3c0.1,0.1,0.1,0.3,0.1,0.5c0,0.4,0.1,0.8,0.3,1.2c0.2,0.4,0.5,0.7,0.9,0.9c0.5,0.3,1.2,0.4,1.8,0.2
	c0.6-0.2,1.1-0.6,1.4-1.1c0.3-0.4,0.4-1,0.3-1.5c-0.1-0.5-0.3-1-0.7-1.3c-0.4-0.4-0.8-0.6-1.4-0.6c-0.5-0.1-1,0.1-1.5,0.3
	c-0.1,0.1-0.3,0.1-0.5,0.1s-0.3,0-0.5-0.1l-1.8-1c-0.1-0.1-0.3-0.2-0.3-0.3c-0.1-0.1-0.1-0.3-0.1-0.4c0-0.4-0.1-0.8-0.3-1.2
	c-0.2-0.3-0.5-0.6-0.9-0.8c-0.4-0.2-0.8-0.3-1.2-0.3s-0.8,0.1-1.2,0.3c-0.1,0.1-0.3,0.1-0.5,0.1c-0.2,0-0.3,0-0.5-0.1l-1.7-1
	c-0.1-0.1-0.3-0.2-0.3-0.3c-0.1-0.1-0.1-0.3-0.1-0.4c0-0.4-0.1-0.8-0.3-1.1C9,29,8.7,28.7,8.3,28.5c-0.1-0.1-0.3-0.2-0.4-0.3
	c-0.1-0.1-0.1-0.3-0.1-0.5l0-2.1c0-0.2,0-0.3,0.1-0.4C8,25.1,8.1,25,8.3,24.9c0.3-0.2,0.6-0.4,0.8-0.7c0.2-0.3,0.3-0.6,0.4-1
	c0-0.4,0-0.7-0.1-1c-0.1-0.3-0.3-0.6-0.6-0.9c-0.3-0.2-0.6-0.4-0.9-0.5s-0.7-0.1-1.1-0.1c-0.4,0-0.7,0.2-1,0.4
	C5.5,21.2,5.2,21.5,5.1,21.8z"/>
</svg>
