<svg width="63" height="70" viewBox="0 0 63 70" fill="none" xmlns="http://www.w3.org/2000/svg">
<path d="M62.6365 49.9463C62.7709 49.3835 62.7353 48.7935 62.5342 48.251C62.3332 47.7084 61.9758 47.2377 61.5071 46.8984C61.0385 46.559 60.4798 46.3663 59.9016 46.3446C59.3234 46.3229 58.7518 46.4731 58.259 46.7764C57.7663 47.0796 57.3745 47.5222 57.1334 48.0481C56.8922 48.574 56.8124 49.1597 56.9042 49.731C56.996 50.3022 57.2551 50.8334 57.6488 51.2574C58.0426 51.6813 58.5532 51.979 59.1161 52.1127C59.8701 52.2895 60.6633 52.161 61.3229 51.7551C61.9824 51.3492 62.4546 50.699 62.6365 49.9463Z" fill="#116466"/>
<path d="M5.76932 49.9453C5.90367 49.3825 5.86808 48.7925 5.66705 48.25C5.46601 47.7075 5.10857 47.2367 4.63995 46.8974C4.17133 46.5581 3.61258 46.3653 3.03441 46.3436C2.45623 46.3219 1.8846 46.4722 1.39184 46.7754C0.899082 47.0786 0.507339 47.5212 0.266173 48.0471C0.0250079 48.5731 -0.0547428 49.1587 0.0370115 49.73C0.128766 50.3012 0.387902 50.8325 0.781634 51.2564C1.17537 51.6804 1.686 51.978 2.24893 52.1117C3.00287 52.2885 3.79615 52.16 4.45567 51.7541C5.11519 51.3483 5.58742 50.698 5.76932 49.9453Z" fill="#289295"/>
<path d="M53.159 56.4094C53.2933 55.8466 53.2577 55.2567 53.0567 54.7141C52.8557 54.1716 52.4982 53.7009 52.0296 53.3615C51.561 53.0222 51.0022 52.8294 50.4241 52.8077C49.8459 52.786 49.2742 52.9363 48.7815 53.2395C48.2887 53.5427 47.897 53.9853 47.6558 54.5113C47.4147 55.0372 47.3349 55.6228 47.4267 56.1941C47.5184 56.7654 47.7776 57.2966 48.1713 57.7205C48.565 58.1445 49.0756 58.4421 49.6386 58.5758C50.3926 58.7534 51.1862 58.6251 51.8459 58.2192C52.5056 57.8132 52.9777 57.1625 53.159 56.4094Z" fill="#116466"/>
<path d="M15.2849 56.5254C15.4193 55.9626 15.3837 55.3726 15.1827 54.8301C14.9816 54.2875 14.6242 53.8168 14.1556 53.4775C13.687 53.1381 13.1282 52.9454 12.55 52.9237C11.9719 52.902 11.4002 53.0522 10.9075 53.3555C10.4147 53.6587 10.023 54.1013 9.7818 54.6272C9.54063 55.1531 9.46088 55.7388 9.55264 56.3101C9.64439 56.8813 9.90353 57.4125 10.2973 57.8365C10.691 58.2604 11.2016 58.5581 11.7646 58.6918C12.5185 58.8686 13.3118 58.7401 13.9713 58.3342C14.6308 57.9283 15.103 57.2781 15.2849 56.5254Z" fill="#289295"/>
<path d="M43.6814 62.3672C43.8158 61.8044 43.7802 61.2144 43.5792 60.6719C43.3781 60.1293 43.0207 59.6586 42.5521 59.3193C42.0834 58.9799 41.5247 58.7872 40.9465 58.7655C40.3683 58.7438 39.7967 58.894 39.304 59.1973C38.8112 59.5005 38.4194 59.9431 38.1783 60.469C37.9371 60.9949 37.8574 61.5806 37.9491 62.1519C38.0409 62.7231 38.3 63.2543 38.6937 63.6783C39.0875 64.1022 39.5981 64.3999 40.161 64.5336C40.9145 64.7031 41.7043 64.5714 42.3621 64.1667C43.0198 63.762 43.4932 63.1162 43.6814 62.3672Z" fill="#116466"/>
<path d="M24.6765 62.3286C24.8109 61.7658 24.7753 61.1758 24.5743 60.6333C24.3732 60.0908 24.0158 59.62 23.5472 59.2807C23.0786 58.9414 22.5198 58.7486 21.9416 58.7269C21.3635 58.7052 20.7918 58.8555 20.2991 59.1587C19.8063 59.4619 19.4146 59.9045 19.1734 60.4304C18.9322 60.9564 18.8525 61.542 18.9442 62.1133C19.036 62.6845 19.2951 63.2158 19.6889 63.6397C20.0826 64.0637 20.5932 64.3613 21.1562 64.495C21.9096 64.6645 22.6995 64.5329 23.3572 64.1281C24.0149 63.7234 24.4884 63.0776 24.6765 62.3286Z" fill="#289295"/>
<path d="M33.9031 67.761C34.0375 67.1982 34.0019 66.6082 33.8008 66.0657C33.5998 65.5231 33.2424 65.0524 32.7737 64.7131C32.3051 64.3737 31.7464 64.181 31.1682 64.1593C30.59 64.1376 30.0184 64.2878 29.5256 64.5911C29.0329 64.8943 28.6411 65.3369 28.4 65.8628C28.1588 66.3887 28.079 66.9744 28.1708 67.5457C28.2626 68.1169 28.5217 68.6481 28.9154 69.0721C29.3092 69.496 29.8198 69.7937 30.3827 69.9274C31.1362 70.0976 31.9264 69.9663 32.5843 69.5614C33.2422 69.1566 33.7155 68.5103 33.9031 67.761Z" fill="#289295"/>
<path d="M62.6365 40.0364C62.7709 39.4736 62.7353 38.8836 62.5342 38.3411C62.3332 37.7985 61.9758 37.3278 61.5071 36.9885C61.0385 36.6491 60.4798 36.4564 59.9016 36.4347C59.3234 36.413 58.7518 36.5632 58.259 36.8665C57.7663 37.1697 57.3745 37.6123 57.1334 38.1382C56.8922 38.6641 56.8124 39.2498 56.9042 39.821C56.996 40.3923 57.2551 40.9235 57.6488 41.3475C58.0426 41.7714 58.5532 42.0691 59.1161 42.2028C59.8701 42.3803 60.6637 42.2521 61.3234 41.8461C61.9831 41.4402 62.4553 40.7895 62.6365 40.0364Z" fill="#116466"/>
<path d="M5.76932 40.0356C5.90367 39.4729 5.86808 38.8829 5.66705 38.3403C5.46601 37.7978 5.10857 37.3271 4.63995 36.9877C4.17133 36.6484 3.61258 36.4557 3.03441 36.4339C2.45623 36.4122 1.8846 36.5625 1.39184 36.8657C0.899082 37.169 0.507339 37.6115 0.266173 38.1375C0.0250079 38.6634 -0.0547428 39.249 0.0370115 39.8203C0.128766 40.3916 0.387902 40.9228 0.781634 41.3467C1.17537 41.7707 1.686 42.0683 2.24893 42.202C3.00287 42.3788 3.79615 42.2503 4.45567 41.8445C5.11519 41.4386 5.58742 40.7884 5.76932 40.0356Z" fill="#289295"/>
<path d="M62.6365 30.1262C62.7709 29.5634 62.7353 28.9735 62.5342 28.4309C62.3332 27.8884 61.9758 27.4177 61.5071 27.0783C61.0385 26.739 60.4798 26.5462 59.9016 26.5245C59.3234 26.5028 58.7518 26.6531 58.259 26.9563C57.7663 27.2595 57.3745 27.7021 57.1334 28.2281C56.8922 28.754 56.8124 29.3396 56.9042 29.9109C56.996 30.4822 57.2551 31.0134 57.6488 31.4373C58.0426 31.8613 58.5532 32.1589 59.1161 32.2926C59.8701 32.4702 60.6637 32.3419 61.3234 31.936C61.9831 31.53 62.4553 30.8793 62.6365 30.1262Z" fill="#116466"/>
<path d="M5.76932 30.1262C5.90367 29.5634 5.86808 28.9735 5.66705 28.4309C5.46601 27.8884 5.10857 27.4177 4.63995 27.0783C4.17133 26.739 3.61258 26.5462 3.03441 26.5245C2.45623 26.5028 1.8846 26.6531 1.39184 26.9563C0.899082 27.2595 0.507339 27.7021 0.266173 28.2281C0.0250078 28.754 -0.0547428 29.3396 0.0370115 29.9109C0.128766 30.4822 0.387902 31.0134 0.781634 31.4373C1.17537 31.8613 1.686 32.1589 2.24893 32.2926C3.00287 32.4694 3.79615 32.3409 4.45567 31.935C5.11519 31.5292 5.58742 30.8789 5.76932 30.1262Z" fill="#289295"/>
<path d="M62.6365 20.2165C62.7709 19.6538 62.7353 19.0638 62.5342 18.5212C62.3332 17.9787 61.9758 17.508 61.5071 17.1686C61.0385 16.8293 60.4798 16.6366 59.9016 16.6149C59.3234 16.5931 58.7518 16.7434 58.259 17.0466C57.7663 17.3499 57.3745 17.7925 57.1334 18.3184C56.8922 18.8443 56.8124 19.43 56.9042 20.0012C56.996 20.5725 57.2551 21.1037 57.6488 21.5277C58.0426 21.9516 58.5532 22.2493 59.1161 22.3829C59.8701 22.5598 60.6633 22.4312 61.3229 22.0254C61.9824 21.6195 62.4546 20.9693 62.6365 20.2165Z" fill="#116466"/>
<path d="M5.76932 20.2165C5.90367 19.6538 5.86808 19.0638 5.66705 18.5212C5.46601 17.9787 5.10857 17.508 4.63995 17.1686C4.17133 16.8293 3.61258 16.6366 3.03441 16.6149C2.45623 16.5931 1.8846 16.7434 1.39184 17.0466C0.899082 17.3499 0.507339 17.7925 0.266173 18.3184C0.0250078 18.8443 -0.0547428 19.43 0.0370115 20.0012C0.128766 20.5725 0.387902 21.1037 0.781634 21.5277C1.17537 21.9516 1.686 22.2493 2.24893 22.3829C3.00287 22.5598 3.79615 22.4312 4.45567 22.0254C5.11519 21.6195 5.58742 20.9693 5.76932 20.2165Z" fill="#5FC5BD"/>
<path d="M14.115 14.0908C14.2494 13.528 14.2138 12.9381 14.0127 12.3955C13.8117 11.853 13.4543 11.3823 12.9857 11.0429C12.517 10.7036 11.9583 10.5108 11.3801 10.4891C10.8019 10.4674 10.2303 10.6177 9.73754 10.9209C9.24479 11.2241 8.85304 11.6667 8.61188 12.1927C8.37071 12.7186 8.29096 13.3042 8.38271 13.8755C8.47447 14.4468 8.73361 14.978 9.12734 15.4019C9.52107 15.8259 10.0317 16.1235 10.5946 16.2572C11.3481 16.4275 12.1383 16.2961 12.7962 15.8912C13.4541 15.4864 13.9275 14.8402 14.115 14.0908Z" fill="#5FC5BD"/>
<path d="M23.7508 8.41771C23.8851 7.85493 23.8495 7.26496 23.6485 6.72242C23.4475 6.17988 23.09 5.70916 22.6214 5.36981C22.1528 5.03047 21.594 4.83774 21.0159 4.81603C20.4377 4.79431 19.866 4.94457 19.3733 5.24781C18.8805 5.55105 18.4888 5.99363 18.2476 6.51955C18.0065 7.04548 17.9267 7.63113 18.0185 8.20239C18.1102 8.77366 18.3693 9.30487 18.7631 9.72882C19.1568 10.1528 19.6674 10.4504 20.2304 10.5841C20.9839 10.7544 21.7741 10.623 22.432 10.2182C23.0898 9.81329 23.5632 9.16707 23.7508 8.41771Z" fill="#5FC5BD"/>
<path d="M33.7236 3.59777C33.8572 3.03562 33.8212 2.44646 33.6201 1.90478C33.4189 1.3631 33.0617 0.893221 32.5935 0.55454C32.1254 0.21586 31.5673 0.0235891 30.9899 0.00203434C30.4125 -0.0195204 29.8416 0.130609 29.3495 0.433443C28.8574 0.736277 28.4662 1.17822 28.2252 1.7034C27.9842 2.22857 27.9044 2.8134 27.9957 3.38395C28.0871 3.9545 28.3456 4.48516 28.7385 4.90882C29.1314 5.33249 29.6411 5.63015 30.2032 5.76416C30.9567 5.93442 31.7469 5.80307 32.4048 5.39822C33.0627 4.99336 33.536 4.34714 33.7236 3.59777Z" fill="#5FC5BD"/>
<path d="M43.781 8.35814C43.9154 7.79536 43.8798 7.20539 43.6788 6.66285C43.4777 6.12031 43.1203 5.64959 42.6517 5.31024C42.1831 4.9709 41.6243 4.77817 41.0461 4.75646C40.4679 4.73474 39.8963 4.885 39.4036 5.18824C38.9108 5.49147 38.5191 5.93405 38.2779 6.45998C38.0367 6.98591 37.957 7.57156 38.0487 8.14282C38.1405 8.71409 38.3996 9.2453 38.7934 9.66925C39.1871 10.0932 39.6977 10.3909 40.2607 10.5245C41.0141 10.6948 41.8043 10.5634 42.4622 10.1586C43.1201 9.75372 43.5935 9.1075 43.781 8.35814Z" fill="#5FC5BD"/>
<path d="M53.5496 14.0449C53.6839 13.4821 53.6484 12.8922 53.4473 12.3496C53.2463 11.8071 52.8888 11.3364 52.4202 10.997C51.9516 10.6577 51.3929 10.4649 50.8147 10.4432C50.2365 10.4215 49.6649 10.5718 49.1721 10.875C48.6794 11.1782 48.2876 11.6208 48.0464 12.1468C47.8053 12.6727 47.7255 13.2583 47.8173 13.8296C47.909 14.4009 48.1682 14.9321 48.5619 15.356C48.9556 15.78 49.4663 16.0776 50.0292 16.2113C50.7832 16.3889 51.5768 16.2606 52.2365 15.8547C52.8962 15.4487 53.3683 14.798 53.5496 14.0449Z" fill="#5FC5BD"/>
<path d="M41.344 28.208L32.8139 23.2984C32.2787 22.9882 31.6722 22.8221 31.0537 22.8164C30.4356 22.8193 29.8292 22.9856 29.2962 23.2984L21.007 28.0618C20.6772 28.2522 20.4034 28.5262 20.2133 28.8561C20.0231 29.1861 19.9233 29.5603 19.9238 29.9411V39.5085C19.9251 40.1274 20.0879 40.7352 20.3962 41.2719C20.7044 41.8086 21.1474 42.2555 21.6813 42.5685L30.2115 47.4835C30.4698 47.626 30.76 47.7007 31.055 47.7007C31.35 47.7007 31.6402 47.626 31.8986 47.4835L40.426 42.5685C40.9606 42.256 41.4043 41.8093 41.7131 41.2726C42.0218 40.7358 42.1849 40.1277 42.1862 39.5085V29.6785C42.1864 29.3812 42.1087 29.089 41.961 28.8311C41.8132 28.5731 41.6005 28.3583 41.344 28.208ZM40.8024 39.4841C40.799 39.8641 40.6974 40.2368 40.5077 40.566C40.3179 40.8953 40.0463 41.1699 39.7192 41.3634L32.8301 45.3388C32.7204 45.4027 32.5957 45.4366 32.4688 45.4368C32.3418 45.4371 32.217 45.4038 32.107 45.3403C31.997 45.2768 31.9058 45.1853 31.8426 45.0752C31.7793 44.9651 31.7463 44.8402 31.7469 44.7132V43.0668C31.7469 42.9052 31.6827 42.7502 31.5685 42.6359C31.4542 42.5216 31.2992 42.4575 31.1376 42.4575H30.9589C30.7997 42.461 30.6481 42.5267 30.5368 42.6406C30.4254 42.7545 30.3631 42.9075 30.3631 43.0668V44.5291C30.3658 44.6765 30.329 44.822 30.2564 44.9504C30.1839 45.0788 30.0783 45.1854 29.9506 45.2592C29.8229 45.333 29.6778 45.3712 29.5304 45.37C29.3829 45.3687 29.2385 45.328 29.112 45.2521L22.38 41.3634C22.0491 41.1805 21.7737 40.9115 21.5831 40.585C21.3924 40.2585 21.2935 39.8865 21.2968 39.5085V31.964C21.2963 31.7945 21.3404 31.6278 21.4247 31.4807C21.509 31.3336 21.6305 31.2113 21.777 31.126C21.9235 31.0407 22.0898 30.9954 22.2594 30.9946C22.4289 30.9939 22.5956 31.0378 22.7428 31.1218L24.7116 32.2592C24.804 32.3132 24.9092 32.3418 25.0163 32.342C25.1234 32.3422 25.2287 32.3141 25.3214 32.2605C25.4141 32.2068 25.4909 32.1296 25.5441 32.0366C25.5973 31.9436 25.6249 31.8382 25.6241 31.7311V31.547C25.6274 31.4377 25.6008 31.3296 25.5474 31.2342C25.494 31.1388 25.4157 31.0597 25.3209 31.0054L23.0786 29.7082C22.969 29.6447 22.878 29.5535 22.8148 29.4437C22.7515 29.3339 22.7182 29.2094 22.7182 29.0827C22.7182 28.956 22.7515 28.8315 22.8148 28.7217C22.878 28.6119 22.969 28.5207 23.0786 28.4571L29.9705 24.4818C30.2985 24.2885 30.673 24.1884 31.0537 24.1921C31.4339 24.1919 31.8075 24.2918 32.1369 24.4818L39.3889 28.6738C39.4611 28.7178 39.5209 28.7796 39.5624 28.8533C39.6038 28.9271 39.6256 29.0103 39.6256 29.0949C39.6256 29.1795 39.6038 29.2627 39.5624 29.3364C39.5209 29.4102 39.4611 29.472 39.3889 29.516L37.255 30.7454C37.1622 30.7989 37.0851 30.8759 37.0314 30.9686C36.9777 31.0612 36.9493 31.1664 36.949 31.2735V31.4305C36.9488 31.5377 36.9768 31.6431 37.0303 31.7359C37.0839 31.8288 37.1609 31.9059 37.2538 31.9595C37.3466 32.013 37.452 32.0411 37.5591 32.041C37.6663 32.0408 37.7716 32.0124 37.8643 31.9586L40.0875 30.6723C40.1604 30.6302 40.243 30.6079 40.3271 30.6077C40.4112 30.6074 40.4939 30.6292 40.567 30.6708C40.6401 30.7124 40.7011 30.7725 40.7438 30.8449C40.7865 30.9174 40.8095 30.9998 40.8106 31.0839L40.8024 39.4841Z" fill="#1F211B" stroke="#1F211B" stroke-width="0.812397"/>
<path d="M29.3176 39.5109H32.838C33.0709 39.5095 33.2938 39.4157 33.4577 39.2503C33.6217 39.0848 33.7134 38.861 33.7126 38.6281V36.5619C34.1604 36.0528 34.4516 35.4252 34.5513 34.7546C34.651 34.0839 34.5549 33.3988 34.2746 32.7814C33.9943 32.1641 33.5417 31.6408 32.9711 31.2745C32.4006 30.9082 31.7364 30.7145 31.0584 30.7166C30.3804 30.7187 29.7174 30.9165 29.1491 31.2863C28.5808 31.6561 28.1314 32.1821 27.8549 32.8012C27.5784 33.4203 27.4865 34.106 27.5903 34.776C27.6942 35.446 27.9893 36.0718 28.4402 36.5782V38.6471C28.4451 38.877 28.5396 39.0959 28.7034 39.2572C28.8673 39.4185 29.0876 39.5095 29.3176 39.5109ZM31.0534 32.4701C31.409 32.4694 31.7566 32.5765 32.05 32.7774C32.3435 32.9784 32.5691 33.2636 32.697 33.5954C32.825 33.9273 32.8492 34.2902 32.7665 34.6361C32.6839 34.982 32.4982 35.2947 32.2341 35.5329L32.1962 35.5735L32.1745 35.5979L32.142 35.6385L32.1176 35.6656C32.1176 35.6656 32.0987 35.6926 32.0906 35.7089L32.0716 35.7387L32.0499 35.7847L32.0337 35.8145L32.0147 35.8632C32.0136 35.8722 32.0136 35.8813 32.0147 35.8903C32.0081 35.908 32.0026 35.9261 31.9985 35.9445V35.9743C31.9972 35.9923 31.9972 36.0104 31.9985 36.0284C31.9972 36.0392 31.9972 36.0501 31.9985 36.0609C31.9971 36.078 31.9971 36.0953 31.9985 36.1124C31.9985 36.1259 31.9985 36.1368 31.9985 36.1503C31.9985 36.1638 31.9985 36.1692 31.9985 36.1774V37.7263H30.241V36.1774C30.2397 36.1675 30.2397 36.1575 30.241 36.1476C30.2423 36.1368 30.2423 36.1259 30.241 36.1151V36.0582C30.2395 36.0492 30.2395 36.0401 30.241 36.0311C30.241 36.0095 30.241 35.9932 30.241 35.9743V35.9472C30.2368 35.9285 30.2304 35.9103 30.222 35.893C30.2236 35.8841 30.2236 35.8749 30.222 35.866C30.2165 35.8481 30.2092 35.8309 30.2004 35.8145C30.2004 35.8145 30.2004 35.7955 30.1868 35.7874L30.1625 35.7414L30.1462 35.7089L30.1164 35.6683C30.1101 35.6577 30.1029 35.6477 30.0948 35.6385L30.0623 35.6006L30.0379 35.5735L29.9973 35.5356L29.9837 35.522C29.717 35.2857 29.5286 34.9737 29.4435 34.6277C29.3584 34.2816 29.3806 33.9178 29.5074 33.5847C29.6341 33.2517 29.8592 32.965 30.1528 32.763C30.4464 32.561 30.7945 32.4532 31.1509 32.4539L31.0534 32.4701Z" fill="#1F211B"/>
<path d="M43.9925 15.61C43.762 15.2088 43.4548 14.857 43.0883 14.5747C42.7218 14.2924 42.3033 14.0851 41.8566 13.9646C41.41 13.8441 40.9439 13.8129 40.4852 13.8726C40.0265 13.9324 39.584 14.082 39.1831 14.3129L39.1533 14.3291C38.9413 14.4612 38.6976 14.5336 38.4479 14.5389C38.1982 14.5441 37.9517 14.4819 37.7343 14.3589L35.0534 12.8099C34.8476 12.6861 34.6784 12.5097 34.5632 12.2989C34.4481 12.0881 34.3911 11.8504 34.3981 11.6103C34.4035 10.9905 34.2453 10.3803 33.9393 9.84125C33.6333 9.30224 33.1904 8.85357 32.6554 8.5406C32.1204 8.22763 31.5123 8.06145 30.8925 8.05887C30.2727 8.05628 29.6632 8.21738 29.1256 8.52588C28.5691 8.8528 28.1115 9.32419 27.8011 9.89008C27.4907 10.456 27.3393 11.0953 27.3627 11.7403C27.367 11.9906 27.3033 12.2374 27.1783 12.4544C27.0534 12.6714 26.8719 12.8504 26.6532 12.9724L24.1944 14.3914C23.9809 14.5196 23.7366 14.5873 23.4876 14.5873C23.2386 14.5873 22.9943 14.5196 22.7808 14.3914C22.2396 14.0499 21.6155 13.8623 20.9756 13.849C20.3358 13.8356 19.7044 13.9969 19.1494 14.3156C18.5981 14.6394 18.1437 15.1051 17.8336 15.6643C17.5235 16.2235 17.3691 16.8556 17.3865 17.4947C17.3882 17.7435 17.323 17.9881 17.1977 18.203C17.0724 18.4179 16.8916 18.5951 16.6743 18.716L14.0367 20.2379C13.8241 20.3643 13.5813 20.431 13.334 20.431C13.0866 20.431 12.8439 20.3643 12.6312 20.2379C12.0917 19.9059 11.4726 19.7257 10.8392 19.7161C10.2058 19.7066 9.58159 19.8682 9.03233 20.1838C8.22358 20.6574 7.63397 21.4306 7.39118 22.3358C7.1484 23.241 7.272 24.2055 7.7352 25.0202C8.12288 25.6946 8.72299 26.2216 9.4418 26.5189C10.1606 26.8162 10.9576 26.867 11.7084 26.6634C12.4591 26.4599 13.1214 26.0134 13.5916 25.3938C14.0618 24.7742 14.3135 24.0162 14.3075 23.2384C14.3128 22.9951 14.3816 22.7575 14.507 22.549C14.6324 22.3405 14.8101 22.1683 15.0224 22.0496L17.7683 20.4654C17.9756 20.3408 18.212 20.2727 18.4539 20.268C18.6957 20.2632 18.9346 20.322 19.1467 20.4383C19.6822 20.7398 20.2871 20.8966 20.9016 20.8933C21.5162 20.89 22.1193 20.7268 22.6516 20.4196C23.1839 20.1125 23.6271 19.672 23.9375 19.1416C24.2479 18.6112 24.4148 18.0091 24.4218 17.3945C24.4298 17.1533 24.4998 16.9183 24.625 16.7119C24.7502 16.5056 24.9265 16.335 25.1367 16.2166L27.7716 14.6974C27.9778 14.5739 28.2125 14.5062 28.4528 14.5009C28.6931 14.4957 28.9305 14.5532 29.1419 14.6676C29.6758 14.9694 30.2799 15.1251 30.8932 15.1189C31.5066 15.1127 32.1074 14.9449 32.6352 14.6324C32.8445 14.507 33.0832 14.4393 33.3272 14.4359C33.5712 14.4326 33.8117 14.4938 34.0244 14.6134L36.7594 16.1922C36.964 16.3154 37.1324 16.4905 37.2475 16.6997C37.3626 16.909 37.4203 17.145 37.4148 17.3837C37.4108 18.0022 37.5708 18.6106 37.8785 19.1471C38.1862 19.6836 38.6306 20.1289 39.1665 20.4377C39.7024 20.7465 40.3105 20.9078 40.929 20.905C41.5474 20.9023 42.1541 20.7356 42.6872 20.4221C43.0894 20.1923 43.4423 19.8854 43.7257 19.5191C44.009 19.1527 44.2173 18.734 44.3386 18.2869C44.4598 17.8399 44.4917 17.3733 44.4323 16.914C44.3729 16.4546 44.2234 16.0115 43.9925 15.61Z" fill="#5FC5BD"/>
<path d="M41.4662 55.8647C41.9285 55.8598 42.3853 55.7638 42.8105 55.5823C43.2357 55.4008 43.6211 55.1373 43.9444 54.8069C44.2678 54.4765 44.5229 54.0856 44.6953 53.6566C44.8676 53.2275 44.9537 52.7688 44.9487 52.3064V52.2739C44.9377 52.0246 44.9941 51.7769 45.1117 51.5568C45.2294 51.3367 45.4041 51.1523 45.6175 51.0229L48.2795 49.4414C48.4884 49.3225 48.7251 49.2613 48.9655 49.2642C49.2058 49.267 49.441 49.3338 49.647 49.4576C50.189 49.7711 50.8056 49.932 51.4316 49.9234C51.8941 49.9188 52.3512 49.8231 52.7768 49.6418C53.2023 49.4604 53.5879 49.197 53.9116 48.8665C54.2353 48.5361 54.4906 48.1451 54.6631 47.7158C54.8356 47.2866 54.9218 46.8277 54.9168 46.3651C54.9034 45.7204 54.7159 45.0913 54.3741 44.5445C54.0322 43.9977 53.5489 43.5535 52.9751 43.2591C52.755 43.14 52.571 42.9637 52.4428 42.7487C52.3146 42.5337 52.2468 42.2881 52.2467 42.0377L52.2115 39.1971C52.205 38.9482 52.2661 38.7023 52.3881 38.4854C52.5102 38.2684 52.6887 38.0886 52.9047 37.9649C53.4677 37.6601 53.9369 37.2076 54.2619 36.656C54.5868 36.1044 54.7552 35.4747 54.7489 34.8345C54.7364 34.195 54.5528 33.5706 54.217 33.0262C53.8812 32.4818 53.4056 32.0374 52.8397 31.7393C52.6222 31.6194 52.4408 31.4434 52.3146 31.2295C52.1883 31.0156 52.1219 30.7717 52.1221 30.5234L52.0842 27.4769C52.0774 27.2296 52.1372 26.9851 52.2572 26.7688C52.3773 26.5526 52.5532 26.3725 52.7666 26.2475C53.3202 25.9395 53.7804 25.488 54.0988 24.9404C54.4172 24.3928 54.5819 23.7694 54.5756 23.136C54.5585 22.1988 54.1729 21.3062 53.5023 20.6513C52.8317 19.9964 51.9302 19.6321 50.9929 19.6373C50.2137 19.6424 49.4583 19.9059 48.8449 20.3865C48.2316 20.8671 47.795 21.5376 47.6036 22.2929C47.4122 23.0482 47.4768 23.8457 47.7873 24.5604C48.0978 25.275 48.6366 25.8665 49.3194 26.242C49.5292 26.3654 49.7031 26.5416 49.8238 26.753C49.9444 26.9644 50.0077 27.2037 50.0072 27.4471L50.0478 30.6182C50.0536 30.8596 49.9965 31.0984 49.8821 31.3111C49.7677 31.5239 49.5999 31.7031 49.3952 31.8313C48.8703 32.1514 48.4378 32.6027 48.1402 33.1406C47.8426 33.6785 47.6901 34.2847 47.6977 34.8994C47.7054 35.5142 47.8729 36.1163 48.1838 36.6467C48.4947 37.1771 48.9383 37.6174 49.471 37.9243C49.6782 38.0486 49.8497 38.2244 49.9688 38.4347C50.0879 38.6449 50.1506 38.8823 50.1507 39.124L50.1886 42.165C50.1943 42.4052 50.138 42.6427 50.0251 42.8548C49.9122 43.0668 49.7465 43.2461 49.5441 43.3755C49.0192 43.6927 48.5874 44.1431 48.2925 44.681C47.9977 45.2188 47.8503 45.825 47.8652 46.4382C47.8716 46.6821 47.8136 46.9234 47.6972 47.1378C47.5807 47.3522 47.4098 47.5322 47.2017 47.6595L44.4937 49.2708C44.2879 49.3896 44.0544 49.4522 43.8167 49.4522C43.579 49.4522 43.3456 49.3896 43.1397 49.2708C42.6685 49.0077 42.1432 48.8565 41.6043 48.8289C41.0654 48.8012 40.5273 48.8978 40.0316 49.1112C39.536 49.3245 39.096 49.649 38.7457 50.0595C38.3955 50.47 38.1443 50.9556 38.0115 51.4786C37.8788 52.0017 37.868 52.5482 37.9801 53.0761C38.0923 53.6039 38.3242 54.0989 38.6581 54.5229C38.992 54.9468 39.4189 55.2883 39.9058 55.521C40.3927 55.7536 40.9266 55.8713 41.4662 55.8647Z" fill="#116466"/>
<path d="M7.67038 33.1501C7.44102 33.5517 7.29306 33.9946 7.23494 34.4535C7.17682 34.9123 7.20968 35.3781 7.33165 35.8242C7.45362 36.2704 7.66231 36.6881 7.94578 37.0535C8.22926 37.419 8.58197 37.725 8.98375 37.9541L9.01354 37.973C9.23494 38.0886 9.42101 38.2618 9.55209 38.4744C9.68317 38.687 9.7544 38.9311 9.75824 39.1808L9.78261 42.276C9.78037 42.5168 9.71395 42.7527 9.59019 42.9593C9.46642 43.1659 9.2898 43.3357 9.07853 43.4513C8.5406 43.7595 8.0936 44.2042 7.78272 44.7406C7.47185 45.277 7.30814 45.886 7.30814 46.5059C7.30814 47.1259 7.47185 47.7348 7.78272 48.2712C8.0936 48.8076 8.5406 49.2523 9.07853 49.5605C9.64223 49.8746 10.2804 50.0304 10.9254 50.0113C11.5704 49.9922 12.1983 49.799 12.7424 49.4522C12.9561 49.3218 13.2011 49.2517 13.4514 49.2493C13.7017 49.2469 13.948 49.3124 14.1641 49.4387L16.6338 50.8414C16.8553 50.9592 17.0404 51.1352 17.1693 51.3504C17.2981 51.5656 17.3658 51.8119 17.365 52.0627C17.3441 52.7023 17.4979 53.3355 17.81 53.8943C18.122 54.453 18.5805 54.9161 19.136 55.2338C19.6949 55.5452 20.327 55.7012 20.9666 55.6855C21.6062 55.6698 22.2299 55.4829 22.7728 55.1444C22.9865 55.0181 23.2301 54.9515 23.4783 54.9515C23.7264 54.9515 23.9701 55.0181 24.1837 55.1444L26.8348 56.6473C27.0514 56.7666 27.2321 56.9419 27.3578 57.1548C27.4836 57.3677 27.5499 57.6105 27.5497 57.8578C27.5365 58.4909 27.6943 59.1158 28.0065 59.6667C28.3186 60.2177 28.7736 60.6742 29.3235 60.9882C30.1411 61.4464 31.1062 61.564 32.01 61.3157C32.9137 61.0673 33.6832 60.473 34.1518 59.6613C34.5419 58.9846 34.6958 58.1973 34.5893 57.4235C34.4828 56.6496 34.122 55.9332 33.5637 55.3869C33.0053 54.8407 32.2811 54.4956 31.5052 54.4061C30.7292 54.3166 29.9455 54.4878 29.2774 54.8926C29.0665 55.0137 28.8275 55.0775 28.5842 55.0775C28.3409 55.0775 28.1019 55.0137 27.8909 54.8926L25.1342 53.3273C24.9228 53.2104 24.7453 53.0407 24.619 52.8347C24.4928 52.6287 24.4221 52.3935 24.4139 52.1521C24.4091 51.5348 24.2403 50.93 23.9248 50.3994C23.6093 49.8688 23.1585 49.4317 22.6185 49.1327C22.0856 48.8272 21.482 48.6665 20.8678 48.6665C20.2535 48.6665 19.65 48.8272 19.1171 49.1327C18.9053 49.2489 18.6669 49.3083 18.4254 49.305C18.1838 49.3017 17.9472 49.2358 17.7387 49.1137L15.0957 47.6108C14.8856 47.4933 14.7097 47.3232 14.5853 47.1171C14.4609 46.911 14.3923 46.6761 14.3862 46.4355C14.3765 45.8225 14.2055 45.2229 13.8903 44.6971C13.5751 44.1713 13.1269 43.7379 12.5908 43.4405C12.3732 43.3261 12.1899 43.156 12.0596 42.9476C11.9292 42.7393 11.8565 42.5 11.8488 42.2544L11.8271 39.0969C11.8286 38.8569 11.8938 38.6215 12.0161 38.415C12.1384 38.2085 12.3133 38.0382 12.5231 37.9216C12.9871 37.6468 13.3817 37.2692 13.6766 36.8178C13.9715 36.3663 14.1588 35.8532 14.2239 35.3179C14.2891 34.7827 14.2304 34.2396 14.0525 33.7306C13.8745 33.2216 13.582 32.7603 13.1975 32.3822C12.8131 32.0042 12.3469 31.7195 11.8349 31.5502C11.323 31.3808 10.779 31.3314 10.2449 31.4056C9.71085 31.4798 9.20095 31.6756 8.75457 31.9781C8.30819 32.2806 7.93725 32.6816 7.67038 33.1501Z" fill="#289295"/>
</svg>
